<?xml version="1.0" standalone="no"?>
<!DOCTYPE svg PUBLIC "-//W3C//DTD SVG 20010904//EN"
 "http://www.w3.org/TR/2001/REC-SVG-20010904/DTD/svg10.dtd">
<svg version="1.0" xmlns="http://www.w3.org/2000/svg"
 width="1015.000000pt" height="687.000000pt" viewBox="0 0 1015.000000 687.000000"
 preserveAspectRatio="xMidYMid meet">
<metadata>
Created by potrace 1.16, written by Peter Selinger 2001-2019
</metadata>
<g transform="translate(0.000000,687.000000) scale(0.100000,-0.100000)"
fill="#000000" stroke="none">
<path d="M19 6857 c12 -15 11 -17 -3 -17 -9 0 -16 -4 -16 -10 0 -5 7 -7 15 -4
20 8 19 -6 -2 -21 -15 -11 -14 -12 11 -8 22 4 27 2 24 -8 -3 -8 -14 -13 -26
-12 -19 2 -20 -3 -21 -92 -1 -59 3 -95 9 -95 9 0 15 29 11 59 -2 7 4 11 11 9
7 -3 13 -11 14 -19 1 -29 17 -50 38 -48 50 3 69 -4 26 -11 l-45 -7 48 -1 c26
-1 47 3 47 8 0 6 25 10 55 10 30 0 55 5 55 10 0 6 -4 10 -9 10 -6 0 -9 9 -8
19 0 11 4 18 8 15 4 -2 9 1 11 6 2 7 10 6 22 -3 19 -14 19 -14 0 -13 -10 1
-20 -3 -21 -9 -4 -13 17 -14 40 -3 9 5 17 5 16 1 -4 -23 3 -33 22 -33 14 0 19
5 16 15 -4 8 -2 17 3 20 6 4 7 18 3 33 -6 24 -4 25 10 14 13 -11 15 -10 11 10
-4 21 -4 21 5 3 8 -20 0 -48 -19 -60 -17 -10 2 -35 27 -35 13 0 21 -4 18 -10
-4 -6 8 -10 28 -10 41 0 51 -8 34 -29 -11 -14 -10 -14 6 -2 27 21 21 41 -13
41 -20 0 -41 10 -58 26 -23 23 -24 24 -4 12 21 -11 25 -11 38 6 12 17 14 18
14 3 0 -9 -4 -17 -10 -17 -5 0 -10 -4 -10 -10 0 -16 32 -12 54 8 20 16 20 16
6 -1 -12 -16 -12 -19 1 -17 31 5 45 -1 24 -10 -15 -6 -9 -9 25 -8 37 0 41 1
20 8 l-25 8 28 1 c29 1 29 2 25 56 -1 30 0 55 5 55 4 0 7 -9 7 -21 0 -11 4
-17 10 -14 5 3 10 1 10 -4 0 -6 -4 -11 -8 -11 -4 0 -9 -13 -10 -30 -2 -24 2
-30 18 -30 19 0 26 19 21 59 -2 7 4 11 11 9 7 -3 13 -11 14 -19 1 -29 17 -50
38 -48 50 3 69 -4 26 -11 l-45 -7 48 -1 c26 -1 47 3 47 8 0 6 25 10 55 10 30
0 55 5 55 10 0 6 -4 10 -9 10 -6 0 -9 9 -8 19 0 11 4 18 8 15 4 -2 9 1 11 6 2
7 10 6 22 -3 18 -13 18 -14 -2 -13 -12 1 -21 -3 -22 -9 0 -13 20 -14 43 -3 9
5 17 5 16 1 -4 -23 3 -33 22 -33 14 0 19 5 16 15 -4 8 -2 17 3 20 6 4 7 18 3
33 -6 24 -4 25 10 14 13 -11 15 -10 11 10 -4 21 -4 21 5 3 8 -20 0 -48 -19
-60 -17 -10 2 -35 27 -35 13 0 21 -4 18 -10 -4 -6 8 -10 28 -10 41 0 51 -8 34
-29 -11 -14 -10 -14 6 -2 27 21 21 41 -13 41 -20 0 -41 10 -58 26 -23 23 -24
24 -4 12 21 -11 25 -11 38 6 12 17 14 18 14 3 0 -9 -4 -17 -10 -17 -5 0 -10
-4 -10 -10 0 -16 32 -12 54 8 20 16 20 16 6 -1 -12 -16 -12 -19 1 -17 31 5 45
-1 24 -10 -15 -6 -9 -9 25 -8 37 0 41 1 20 8 l-25 8 28 1 c29 1 29 2 25 56 -1
30 0 55 5 55 4 0 7 -9 7 -21 0 -11 5 -17 10 -14 6 3 10 1 10 -4 0 -6 -4 -11
-8 -11 -4 0 -9 -13 -10 -30 -2 -24 2 -30 18 -30 19 0 26 19 21 59 -2 7 4 11
11 9 7 -3 13 -11 14 -19 1 -29 17 -50 38 -48 50 3 69 -4 26 -11 l-45 -7 48 -1
c26 -1 47 3 47 8 0 6 25 10 55 10 30 0 55 5 55 10 0 6 -4 10 -9 10 -6 0 -9 9
-8 19 0 11 4 18 8 15 4 -2 9 1 11 6 2 7 10 6 22 -3 18 -13 18 -14 -2 -13 -12
1 -21 -3 -22 -9 0 -13 20 -14 43 -3 9 5 17 5 16 1 -4 -23 3 -33 22 -33 14 0
19 5 16 15 -4 8 -2 17 3 20 6 4 7 18 3 33 -6 24 -4 25 10 14 13 -11 15 -10 11
10 -4 21 -4 21 5 3 8 -20 0 -48 -19 -60 -17 -10 2 -35 27 -35 13 0 21 -4 18
-10 -4 -6 8 -10 28 -10 41 0 51 -8 34 -29 -11 -14 -10 -14 6 -2 27 21 21 41
-13 41 -20 0 -41 10 -58 26 -23 23 -24 24 -4 12 21 -11 25 -11 38 6 12 17 14
18 14 3 0 -9 -4 -17 -10 -17 -5 0 -10 -4 -10 -10 0 -16 32 -12 54 8 20 16 20
16 6 -1 -12 -16 -12 -19 1 -17 31 5 45 -1 24 -10 -15 -6 -9 -9 25 -8 37 0 41
1 20 8 l-25 8 28 1 c29 1 29 2 25 56 -1 30 0 55 5 55 4 0 7 -9 7 -21 0 -11 4
-17 10 -14 5 3 10 1 10 -4 0 -6 -4 -11 -8 -11 -4 0 -9 -13 -10 -30 -2 -24 2
-30 18 -30 19 0 26 19 21 59 -2 7 4 11 11 9 7 -3 13 -11 14 -19 1 -29 17 -50
38 -48 50 3 69 -4 26 -11 l-45 -7 48 -1 c26 -1 47 3 47 8 0 6 25 10 55 10 30
0 55 5 55 10 0 6 -4 10 -9 10 -6 0 -9 9 -8 19 0 11 4 18 8 15 4 -2 9 1 11 6 2
7 10 6 22 -3 18 -13 18 -14 -2 -13 -12 1 -21 -3 -22 -9 0 -13 20 -14 43 -3 9
5 17 5 16 1 -4 -23 3 -33 22 -33 14 0 19 5 16 15 -4 8 -2 17 3 20 6 4 7 18 3
33 -6 24 -4 25 10 14 13 -11 15 -10 11 10 -4 21 -4 21 5 3 8 -20 0 -48 -19
-60 -17 -10 2 -35 27 -35 13 0 21 -4 18 -10 -4 -6 8 -10 28 -10 41 0 51 -8 34
-29 -11 -14 -10 -14 6 -2 27 21 21 41 -13 41 -20 0 -41 10 -58 26 -23 23 -24
24 -4 12 21 -11 25 -11 38 6 12 17 14 18 14 3 0 -9 -4 -17 -10 -17 -5 0 -10
-4 -10 -10 0 -16 32 -12 54 8 20 16 20 16 6 -1 -12 -16 -12 -19 1 -17 31 5 45
-1 24 -10 -15 -6 -9 -9 25 -8 37 0 41 1 20 8 l-25 8 28 1 c29 1 29 2 25 56 -1
30 0 55 5 55 4 0 7 -9 7 -21 0 -11 5 -17 10 -14 6 3 10 1 10 -4 0 -6 -4 -11
-8 -11 -4 0 -9 -13 -10 -30 -2 -24 2 -30 18 -30 19 0 26 19 21 59 -2 7 4 11
11 9 7 -3 13 -11 14 -19 1 -29 17 -50 38 -48 50 3 69 -4 26 -11 l-45 -7 48 -1
c26 -1 47 3 47 8 0 6 25 10 55 10 30 0 55 5 55 10 0 6 -4 10 -9 10 -6 0 -9 9
-8 19 0 11 4 18 8 15 4 -2 9 1 11 6 2 7 10 6 22 -3 18 -13 18 -14 -2 -13 -12
1 -21 -3 -22 -9 0 -13 20 -14 43 -3 9 5 17 5 16 1 -4 -23 3 -33 22 -33 14 0
19 5 16 15 -4 8 -2 17 3 20 6 4 7 18 3 33 -6 24 -4 25 10 14 13 -11 15 -10 11
10 -4 21 -4 21 5 3 8 -20 0 -48 -19 -60 -17 -10 2 -35 27 -35 13 0 21 -4 18
-10 -4 -6 8 -10 28 -10 41 0 51 -8 34 -29 -11 -14 -10 -14 6 -2 27 21 21 41
-13 41 -20 0 -41 10 -58 26 -23 23 -24 24 -4 12 21 -11 25 -11 38 6 12 17 14
18 14 3 0 -9 -4 -17 -10 -17 -5 0 -10 -4 -10 -10 0 -16 32 -12 54 8 20 16 20
16 6 -1 -12 -16 -12 -19 1 -17 31 5 45 -1 24 -10 -15 -6 -9 -9 25 -8 37 0 41
1 20 8 l-25 8 28 1 c29 1 29 2 25 56 -1 30 0 55 5 55 4 0 7 -9 7 -21 0 -11 5
-17 10 -14 5 3 10 1 10 -4 0 -6 -4 -11 -8 -11 -4 0 -9 -13 -10 -30 -2 -24 2
-30 18 -30 19 0 26 19 21 59 -2 7 4 11 11 9 7 -3 13 -11 14 -19 1 -29 17 -50
38 -48 50 3 69 -4 26 -11 l-45 -7 48 -1 c26 -1 47 3 47 8 0 6 25 10 55 10 30
0 55 5 55 10 0 6 -4 10 -9 10 -6 0 -9 9 -8 19 0 11 4 18 8 15 4 -2 9 1 11 6 2
7 10 6 22 -3 18 -13 18 -14 -2 -13 -12 1 -21 -3 -22 -9 0 -13 20 -14 43 -3 9
5 17 5 16 1 -4 -23 3 -33 22 -33 14 0 19 5 16 15 -4 8 -2 17 3 20 6 4 7 18 3
33 -6 24 -4 25 10 14 13 -11 15 -10 11 10 -4 21 -4 21 5 3 8 -20 0 -48 -19
-60 -17 -10 2 -35 27 -35 13 0 21 -4 18 -10 -4 -6 8 -10 28 -10 41 0 51 -8 34
-29 -11 -14 -10 -14 6 -2 27 21 21 41 -13 41 -20 0 -41 10 -58 26 -23 23 -24
24 -4 12 21 -11 25 -11 38 6 12 17 14 18 14 3 0 -9 -4 -17 -10 -17 -5 0 -10
-4 -10 -10 0 -16 32 -12 54 8 20 16 20 16 6 -1 -12 -16 -12 -19 1 -17 31 5 45
-1 24 -10 -15 -6 -9 -9 25 -8 37 0 41 1 20 8 l-25 8 28 1 c29 1 29 2 25 56 -1
30 0 55 5 55 4 0 7 -9 7 -21 0 -11 5 -17 10 -14 6 3 10 1 10 -4 0 -6 -4 -11
-8 -11 -4 0 -9 -13 -10 -30 -2 -24 2 -30 18 -30 19 0 26 19 21 59 -2 7 4 11
11 9 7 -3 13 -11 14 -19 1 -29 17 -50 38 -48 50 3 69 -4 26 -11 l-45 -7 48 -1
c26 -1 47 3 47 8 0 6 25 10 55 10 30 0 55 5 55 10 0 6 -4 10 -9 10 -6 0 -9 9
-8 19 0 11 4 18 8 15 4 -2 9 1 11 6 2 7 10 6 22 -3 18 -13 18 -14 -2 -13 -12
1 -21 -3 -22 -9 0 -13 20 -14 43 -3 9 5 17 5 16 1 -4 -23 3 -33 22 -33 14 0
19 5 16 15 -4 8 -2 17 3 20 6 4 7 18 3 33 -6 24 -4 25 10 14 13 -11 15 -10 11
10 -4 21 -4 21 5 3 8 -20 0 -48 -19 -60 -17 -10 2 -35 27 -35 13 0 21 -4 18
-10 -4 -6 8 -10 28 -10 41 0 51 -8 34 -29 -11 -14 -10 -14 6 -2 27 21 21 41
-13 41 -20 0 -41 10 -58 26 -23 23 -24 24 -4 12 21 -11 25 -11 38 6 12 17 14
18 14 3 0 -9 -4 -17 -10 -17 -5 0 -10 -4 -10 -10 0 -16 32 -12 54 8 20 16 20
16 6 -1 -12 -16 -12 -19 1 -17 31 5 45 -1 24 -10 -15 -6 -9 -9 25 -8 37 0 41
1 20 8 l-25 8 28 1 c29 1 29 2 25 56 -1 30 0 55 5 55 4 0 7 -9 7 -21 0 -11 5
-17 10 -14 6 3 10 1 10 -4 0 -6 -4 -11 -8 -11 -4 0 -9 -13 -10 -30 -2 -24 2
-30 18 -30 19 0 26 19 21 59 -2 7 4 11 11 9 7 -3 13 -11 14 -19 1 -29 17 -50
38 -48 50 3 69 -4 26 -11 l-45 -7 48 -1 c26 -1 47 3 47 8 0 6 25 10 55 10 30
0 55 5 55 10 0 6 -4 10 -9 10 -6 0 -9 9 -8 19 0 11 4 18 8 15 4 -2 9 1 11 6 2
7 10 6 22 -3 18 -13 18 -14 -2 -13 -12 1 -21 -3 -22 -9 0 -13 20 -14 43 -3 9
5 17 5 16 1 -4 -23 3 -33 22 -33 14 0 19 5 16 15 -4 8 -2 17 3 20 6 4 7 18 3
33 -6 24 -4 25 10 14 13 -11 15 -10 11 10 -4 21 -4 21 5 3 8 -20 0 -48 -19
-60 -17 -10 2 -35 27 -35 13 0 21 -4 18 -10 -4 -6 8 -10 28 -10 41 0 51 -8 34
-29 -11 -14 -10 -14 6 -2 27 21 21 41 -13 41 -20 0 -41 10 -58 26 -23 23 -24
24 -4 12 21 -11 25 -11 38 6 12 17 14 18 14 3 0 -9 -4 -17 -10 -17 -5 0 -10
-4 -10 -10 0 -16 32 -12 54 8 20 16 20 16 6 -1 -12 -16 -12 -19 1 -17 31 5 45
-1 24 -10 -15 -6 -9 -9 25 -8 37 0 41 1 20 8 l-25 8 28 1 c29 1 29 2 25 56 -1
30 0 55 5 55 4 0 7 -9 7 -21 0 -11 5 -17 10 -14 6 3 10 1 10 -4 0 -6 -4 -11
-8 -11 -4 0 -9 -13 -10 -30 -2 -24 2 -30 18 -30 19 0 26 19 21 59 -2 7 4 11
11 9 7 -3 13 -11 14 -19 1 -29 17 -50 38 -48 50 3 69 -4 26 -11 l-45 -7 48 -1
c26 -1 47 3 47 8 0 6 25 10 55 10 30 0 55 5 55 10 0 6 -4 10 -9 10 -6 0 -9 9
-8 19 0 11 4 18 8 15 4 -2 9 1 11 6 2 7 10 6 22 -3 18 -13 18 -14 -2 -13 -12
1 -21 -3 -22 -9 0 -13 20 -14 43 -3 9 5 17 5 16 1 -4 -23 3 -33 22 -33 14 0
19 5 16 15 -4 8 -2 17 3 20 6 4 7 18 3 33 -6 24 -4 25 10 14 13 -11 15 -10 11
10 -4 21 -4 21 5 3 8 -20 0 -48 -19 -60 -17 -10 2 -35 27 -35 13 0 21 -4 18
-10 -4 -6 8 -10 28 -10 41 0 51 -8 34 -29 -11 -14 -10 -14 6 -2 27 21 21 41
-13 41 -20 0 -41 10 -58 26 -23 23 -24 24 -4 12 21 -11 25 -11 38 6 12 17 14
18 14 3 0 -9 -4 -17 -10 -17 -5 0 -10 -4 -10 -10 0 -16 32 -12 54 8 20 16 20
16 6 -1 -12 -16 -12 -19 1 -17 31 5 45 -1 24 -10 -15 -6 -9 -9 25 -8 37 0 41
1 20 8 l-25 8 28 1 c29 1 29 2 25 56 -1 30 0 55 5 55 4 0 7 -9 7 -21 0 -11 5
-17 10 -14 6 3 10 1 10 -4 0 -6 -4 -11 -8 -11 -4 0 -9 -13 -10 -30 -2 -24 2
-30 18 -30 19 0 26 19 21 59 -2 7 4 11 11 9 7 -3 13 -11 14 -19 1 -29 17 -50
38 -48 50 3 69 -4 26 -11 l-45 -7 48 -1 c26 -1 47 3 47 8 0 6 25 10 55 10 30
0 55 5 55 10 0 6 -4 10 -9 10 -6 0 -9 9 -8 19 0 11 4 18 8 15 4 -2 9 1 11 6 2
7 10 6 22 -3 18 -13 18 -14 -2 -13 -12 1 -21 -3 -22 -9 0 -13 20 -14 43 -3 9
5 17 5 16 1 -4 -23 3 -33 22 -33 14 0 19 5 16 15 -4 8 -2 17 3 20 6 4 7 18 3
33 -6 24 -4 25 10 14 13 -11 15 -10 11 10 -4 21 -4 21 5 3 8 -20 0 -48 -19
-60 -17 -10 2 -35 27 -35 13 0 21 -4 18 -10 -4 -6 8 -10 28 -10 41 0 51 -8 34
-29 -11 -14 -10 -14 6 -2 27 21 21 41 -13 41 -20 0 -41 10 -58 26 -23 23 -24
24 -4 12 21 -11 25 -11 38 6 12 17 14 18 14 3 0 -9 -4 -17 -10 -17 -5 0 -10
-4 -10 -10 0 -16 32 -12 54 8 20 16 20 16 6 -1 -12 -16 -12 -19 1 -17 31 5 45
-1 24 -10 -15 -6 -9 -9 25 -8 37 0 41 1 20 8 l-25 8 28 1 c29 1 29 2 25 56 -1
30 0 55 5 55 4 0 7 -9 7 -21 0 -11 4 -17 10 -14 6 3 10 1 10 -4 0 -6 -4 -11
-8 -11 -4 0 -9 -13 -10 -30 -2 -24 2 -30 18 -30 19 0 26 19 21 59 -2 7 4 11
11 9 7 -3 13 -11 14 -19 1 -29 17 -50 38 -48 50 3 69 -4 26 -11 l-45 -7 48 -1
c26 -1 47 3 47 8 0 6 25 10 55 10 30 0 55 5 55 10 0 6 -4 10 -9 10 -6 0 -9 9
-8 19 0 11 4 18 8 15 4 -2 9 1 11 6 2 7 10 6 22 -3 18 -13 18 -14 -2 -13 -12
1 -21 -3 -22 -9 0 -13 20 -14 43 -3 9 5 17 5 16 1 -4 -23 3 -33 22 -33 14 0
19 5 16 15 -4 8 -2 17 3 20 6 4 7 18 3 33 -6 24 -4 25 10 14 13 -11 15 -10 11
10 -4 21 -4 21 5 3 8 -20 0 -48 -19 -60 -17 -10 2 -35 27 -35 13 0 21 -4 18
-10 -4 -6 8 -10 28 -10 41 0 51 -8 34 -29 -11 -14 -10 -14 6 -2 27 21 21 41
-13 41 -20 0 -41 10 -58 26 -23 23 -24 24 -4 12 21 -11 25 -11 38 6 12 17 14
18 14 3 0 -9 -4 -17 -10 -17 -5 0 -10 -4 -10 -10 0 -16 32 -12 54 8 20 16 20
16 6 -1 -12 -16 -12 -19 1 -17 31 5 45 -1 24 -10 -15 -6 -9 -9 25 -8 37 0 41
1 20 8 l-25 8 28 1 c29 1 29 2 25 56 -1 30 0 55 5 55 4 0 7 -9 7 -21 0 -11 5
-17 10 -14 6 3 10 1 10 -4 0 -6 -4 -11 -8 -11 -4 0 -9 -13 -10 -30 -2 -24 2
-30 18 -30 19 0 26 19 21 59 -2 7 4 11 11 9 7 -3 13 -11 14 -19 1 -29 17 -50
38 -48 50 3 69 -4 26 -11 l-45 -7 48 -1 c26 -1 47 3 47 8 0 6 25 10 55 10 30
0 55 5 55 10 0 6 -4 10 -9 10 -6 0 -9 9 -8 19 0 11 4 18 8 15 4 -2 9 1 11 6 2
7 10 6 22 -3 18 -13 18 -14 -2 -13 -12 1 -21 -3 -22 -9 0 -13 20 -14 43 -3 9
5 17 5 16 1 -4 -23 3 -33 22 -33 14 0 19 5 16 15 -4 8 -2 17 3 20 6 4 7 18 3
33 -6 24 -4 25 10 14 13 -11 15 -10 11 10 -4 21 -4 21 5 3 8 -20 0 -48 -19
-60 -17 -10 2 -35 27 -35 13 0 21 -4 18 -10 -4 -6 8 -10 28 -10 41 0 51 -8 34
-29 -11 -14 -10 -14 6 -2 27 21 21 41 -13 41 -20 0 -41 10 -58 26 -23 23 -24
24 -4 12 21 -11 25 -11 38 6 12 17 14 18 14 3 0 -9 -4 -17 -10 -17 -5 0 -10
-4 -10 -10 0 -16 32 -12 54 8 20 16 20 16 6 -1 -12 -16 -12 -19 1 -17 31 5 45
-1 24 -10 -15 -6 -9 -9 25 -8 37 0 41 1 20 8 l-25 8 28 1 c29 1 29 2 25 56 -1
30 0 55 5 55 4 0 7 -9 7 -21 0 -11 4 -17 10 -14 5 3 10 1 10 -4 0 -6 -4 -11
-8 -11 -4 0 -9 -13 -10 -30 -2 -24 2 -30 18 -30 19 0 26 19 21 59 -2 7 4 11
11 9 7 -3 13 -11 14 -19 1 -29 17 -50 38 -48 50 3 69 -4 26 -11 l-45 -7 48 -1
c26 -1 47 3 47 8 0 6 25 10 55 10 30 0 55 5 55 10 0 6 -4 10 -9 10 -6 0 -9 9
-8 19 0 11 4 18 8 15 4 -2 9 1 11 6 2 7 10 6 22 -3 18 -13 18 -14 -2 -13 -12
1 -21 -3 -22 -9 0 -13 20 -14 43 -3 9 5 17 5 16 1 -4 -23 3 -33 22 -33 14 0
19 5 16 15 -4 8 -2 17 3 20 6 4 7 18 3 33 -6 24 -4 25 10 14 13 -11 15 -10 11
10 -4 21 -4 21 5 3 8 -20 0 -48 -19 -60 -17 -10 2 -35 27 -35 13 0 21 -4 18
-10 -4 -6 8 -10 28 -10 41 0 51 -8 34 -29 -11 -14 -10 -14 6 -2 27 21 21 41
-13 41 -20 0 -41 10 -58 26 -23 23 -24 24 -4 12 21 -11 25 -11 38 6 12 17 14
18 14 3 0 -9 -4 -17 -10 -17 -5 0 -10 -4 -10 -10 0 -16 32 -12 54 8 20 16 20
16 6 -1 -12 -16 -12 -19 1 -17 31 5 45 -1 24 -10 -15 -6 -9 -9 25 -8 37 0 41
1 20 8 l-25 8 28 1 c29 1 29 2 25 56 -1 30 0 55 5 55 4 0 7 -9 7 -21 0 -11 5
-17 10 -14 6 3 10 1 10 -4 0 -6 -4 -11 -8 -11 -4 0 -9 -13 -10 -30 -2 -24 2
-30 18 -30 19 0 26 19 21 59 -2 7 4 11 11 9 7 -3 13 -11 14 -19 1 -29 17 -50
38 -48 50 3 69 -4 26 -11 l-45 -7 48 -1 c26 -1 47 3 47 8 0 6 25 10 55 10 30
0 55 5 55 10 0 6 -4 10 -9 10 -6 0 -9 9 -8 19 0 11 4 18 8 15 4 -2 9 1 11 6 2
7 10 6 22 -3 19 -14 19 -14 0 -13 -10 1 -20 -3 -21 -9 -4 -13 17 -14 40 -3 9
5 17 5 16 1 -4 -23 3 -33 22 -33 14 0 19 5 16 15 -4 8 -2 17 3 20 6 4 7 18 3
33 -6 24 -4 25 10 14 13 -11 15 -10 11 10 -4 21 -4 21 5 3 8 -20 0 -48 -19
-60 -17 -10 2 -35 27 -35 13 0 21 -4 18 -10 -4 -6 8 -10 28 -10 41 0 51 -8 34
-29 -11 -14 -10 -14 6 -2 27 21 21 41 -13 41 -20 0 -41 10 -58 26 -23 23 -24
24 -4 12 21 -11 25 -11 38 6 12 17 14 18 14 3 0 -9 -4 -17 -10 -17 -5 0 -10
-4 -10 -10 0 -16 32 -12 54 8 20 16 20 16 6 -1 -12 -16 -12 -19 1 -17 31 5 45
-1 24 -10 -15 -6 -9 -9 25 -8 37 0 41 1 20 8 l-25 8 28 1 c29 1 29 2 25 56 -1
30 0 55 5 55 4 0 7 -9 7 -21 0 -11 5 -17 10 -14 6 3 10 1 10 -4 0 -6 -4 -11
-8 -11 -4 0 -9 -13 -10 -30 -2 -24 2 -30 18 -30 19 0 26 19 21 59 -2 7 4 11
11 9 7 -3 13 -11 14 -19 1 -29 17 -50 38 -48 50 3 69 -4 26 -11 l-45 -7 48 -1
c26 -1 47 3 47 8 0 6 25 10 55 10 30 0 55 5 55 10 0 6 -4 10 -9 10 -6 0 -9 9
-8 19 0 11 4 18 8 15 4 -2 9 1 11 6 2 7 10 6 22 -3 19 -14 19 -14 0 -13 -10 1
-20 -3 -21 -9 -4 -13 17 -14 40 -3 9 5 17 5 16 1 -4 -23 3 -33 22 -33 14 0 19
5 16 15 -4 8 -2 17 3 20 6 4 7 18 3 33 -6 24 -4 25 10 14 13 -11 15 -10 11 10
-4 21 -4 21 5 3 8 -20 0 -48 -19 -60 -17 -10 2 -35 27 -35 13 0 21 -4 18 -10
-4 -6 8 -10 28 -10 41 0 51 -8 34 -29 -11 -14 -10 -14 6 -2 27 21 21 41 -13
41 -20 0 -41 10 -58 26 -23 23 -24 24 -4 12 21 -11 25 -11 38 6 12 17 14 18
14 3 0 -9 -4 -17 -10 -17 -5 0 -10 -4 -10 -10 0 -16 32 -12 54 8 20 16 20 16
6 -1 -12 -16 -12 -19 1 -17 31 5 45 -1 24 -10 -15 -6 -9 -9 25 -8 37 0 41 1
20 8 l-25 8 28 1 c29 1 29 2 25 56 -1 30 0 55 5 55 4 0 7 -9 7 -21 0 -11 5
-17 10 -14 6 3 10 1 10 -4 0 -6 -4 -11 -8 -11 -4 0 -9 -13 -10 -30 -2 -24 2
-30 18 -30 19 0 26 19 21 59 -2 7 4 11 11 9 7 -3 13 -11 14 -19 1 -29 17 -50
38 -48 50 3 69 -4 26 -11 l-45 -7 48 -1 c26 -1 47 3 47 8 0 6 25 10 55 10 30
0 55 5 55 10 0 6 -4 10 -9 10 -6 0 -9 9 -8 19 0 11 4 18 8 15 4 -2 9 1 11 6 2
7 10 6 22 -3 19 -14 19 -14 0 -13 -10 1 -20 -3 -21 -9 -4 -13 17 -14 40 -3 9
5 17 5 16 1 -4 -23 3 -33 22 -33 14 0 19 5 16 15 -4 8 -2 17 3 20 6 4 7 18 3
33 -6 24 -4 25 10 14 13 -11 15 -10 11 10 -4 21 -4 21 5 3 8 -20 0 -48 -19
-60 -17 -10 2 -35 27 -35 13 0 21 -4 18 -10 -4 -6 8 -10 28 -10 41 0 51 -8 34
-29 -11 -14 -10 -14 5 -2 28 21 22 41 -12 41 -20 0 -41 10 -58 26 -23 23 -24
24 -4 12 21 -11 25 -11 38 6 12 17 14 18 14 3 0 -9 -4 -17 -10 -17 -5 0 -10
-4 -10 -10 0 -16 32 -12 54 8 16 13 18 14 8 1 -11 -14 -9 -16 13 -16 15 0 25
5 25 14 0 8 -4 12 -8 9 -4 -2 -8 4 -8 14 0 10 4 16 8 14 4 -3 8 6 8 20 0 13
-6 27 -12 29 -10 4 -10 6 0 6 18 1 16 81 -2 81 -8 0 -18 -5 -21 -10 -4 -6 -17
-3 -35 10 -34 24 -41 25 -33 4 5 -13 2 -15 -18 -9 -13 5 -29 8 -36 8 -6 0 -9
6 -6 12 2 8 -6 12 -23 11 -38 -1 -42 21 -4 26 16 3 30 1 30 -3 0 -5 14 -6 32
-2 25 5 30 3 23 -8 -5 -8 -4 -11 0 -6 13 11 16 45 5 52 -6 3 -7 -1 -4 -9 8
-21 -6 -20 -22 2 -13 16 -14 16 -8 -3 6 -20 5 -20 -10 -1 -9 11 -16 15 -16 9
0 -15 -38 -24 -47 -11 -3 7 -1 8 5 4 7 -4 12 -2 12 3 0 20 -20 11 -30 -11 -5
-13 -9 -17 -9 -10 -1 7 -5 11 -10 8 -5 -3 -14 1 -21 9 -10 12 -15 12 -37 -2
-24 -16 -26 -16 -38 1 -10 13 -14 14 -18 4 -4 -10 -6 -10 -6 1 -1 11 -5 10
-16 -5 -21 -28 -18 -33 13 -28 22 4 25 3 15 -7 -7 -7 -13 -20 -13 -29 0 -11
-10 -15 -35 -16 -35 0 -47 10 -22 19 9 4 9 6 0 6 -6 1 -15 -4 -18 -9 -4 -6
-12 -4 -21 5 -9 8 -24 15 -35 15 -11 0 -19 7 -19 18 0 12 2 14 9 4 6 -10 13
-8 32 7 13 11 22 21 19 21 -29 7 -39 7 -39 2 3 -21 -4 -22 -29 -6 -26 17 -27
17 -12 -1 14 -17 13 -18 -7 -13 -15 4 -20 2 -16 -8 2 -7 11 -10 19 -7 8 3 14
1 14 -5 0 -13 -24 -22 -36 -14 -5 4 -11 18 -12 32 -5 33 -12 38 -23 17 -6 -9
-15 -17 -22 -17 -7 0 -18 -9 -25 -20 -8 -13 -18 -17 -29 -13 -11 4 -15 2 -10
-3 16 -17 57 -11 57 8 0 13 8 18 26 18 14 0 23 -4 19 -9 -8 -14 15 -25 48 -23
20 2 27 -2 25 -10 -5 -14 -68 -18 -68 -5 0 5 -5 5 -11 1 -6 -3 -28 -6 -50 -6
-21 0 -41 -4 -45 -9 -3 -5 -18 -1 -34 11 -34 24 -41 25 -33 4 5 -13 2 -15 -18
-9 -13 5 -29 8 -36 8 -6 0 -9 6 -6 12 2 8 -6 12 -23 11 -38 -1 -42 21 -4 26
16 3 30 1 30 -3 0 -5 14 -6 32 -2 25 5 30 3 23 -8 -5 -8 -4 -11 0 -6 13 11 16
45 5 52 -6 3 -7 -1 -4 -9 8 -21 -6 -20 -22 2 -13 16 -14 16 -8 -3 6 -20 5 -20
-10 -1 -9 11 -16 15 -16 9 0 -15 -38 -24 -47 -11 -3 7 -1 8 5 4 7 -4 12 -2 12
3 0 20 -20 11 -30 -11 -5 -13 -9 -17 -9 -10 -1 7 -5 11 -10 8 -5 -3 -14 1 -21
9 -10 12 -15 12 -37 -2 -24 -16 -26 -16 -38 1 -10 13 -14 14 -18 4 -4 -10 -6
-10 -6 1 -1 11 -5 10 -16 -5 -21 -28 -18 -33 13 -28 22 4 25 3 14 -7 -6 -7
-12 -20 -12 -29 0 -11 -10 -15 -35 -16 -35 0 -47 10 -22 19 9 4 9 6 0 6 -6 1
-15 -4 -18 -9 -4 -6 -12 -4 -21 5 -9 8 -24 15 -35 15 -11 0 -19 7 -19 18 0 12
2 14 9 4 6 -10 13 -8 32 7 13 11 22 21 19 21 -29 7 -39 7 -39 2 3 -21 -4 -22
-28 -6 -27 17 -28 17 -13 -1 14 -17 13 -18 -7 -13 -15 4 -20 2 -16 -8 2 -7 11
-10 19 -7 8 3 14 1 14 -5 0 -13 -24 -22 -36 -14 -5 4 -11 18 -12 32 -5 33 -12
38 -23 17 -6 -9 -15 -17 -22 -17 -7 0 -18 -9 -25 -20 -8 -13 -18 -17 -29 -13
-11 4 -15 2 -10 -3 16 -17 57 -11 57 8 0 13 8 18 26 18 14 0 23 -4 19 -9 -8
-14 15 -25 48 -23 20 2 27 -2 25 -10 -5 -14 -68 -18 -68 -5 0 5 -5 5 -11 1 -6
-3 -28 -6 -50 -6 -21 0 -41 -4 -45 -9 -3 -5 -18 -1 -34 11 -34 24 -41 25 -33
4 5 -13 2 -15 -18 -9 -13 5 -29 8 -36 8 -6 0 -9 6 -6 12 2 8 -6 12 -23 11 -38
-1 -42 21 -4 26 16 3 30 1 30 -3 0 -5 14 -6 32 -2 25 5 30 3 23 -8 -5 -8 -4
-11 0 -6 13 11 16 45 5 52 -6 3 -7 -1 -4 -9 8 -21 -6 -20 -22 2 -13 16 -14 16
-8 -3 6 -20 5 -20 -10 -1 -9 11 -16 15 -16 9 0 -15 -38 -24 -47 -11 -3 7 -1 8
5 4 7 -4 12 -2 12 3 0 20 -20 11 -30 -11 -5 -13 -9 -17 -9 -10 -1 7 -5 11 -10
8 -5 -3 -14 1 -21 9 -10 12 -15 12 -37 -2 -24 -16 -26 -16 -38 1 -10 13 -14
14 -18 4 -4 -10 -6 -10 -6 1 -1 11 -5 10 -16 -5 -21 -28 -18 -33 13 -28 22 4
25 3 15 -7 -7 -7 -13 -20 -13 -29 0 -11 -10 -15 -35 -16 -35 0 -47 10 -23 19
10 4 10 6 1 6 -6 1 -15 -4 -18 -9 -4 -6 -12 -4 -21 5 -9 8 -24 15 -35 15 -11
0 -19 7 -19 18 0 12 2 14 9 4 6 -10 13 -8 32 7 13 11 22 21 19 21 -29 7 -39 7
-39 2 3 -21 -4 -22 -28 -6 -27 17 -28 17 -13 -1 14 -17 13 -18 -7 -13 -15 4
-20 2 -16 -8 2 -7 11 -10 19 -7 8 3 14 1 14 -5 0 -13 -24 -22 -36 -14 -5 4
-11 18 -12 32 -5 33 -12 38 -23 17 -6 -9 -15 -17 -22 -17 -7 0 -18 -9 -25 -20
-8 -13 -18 -17 -29 -13 -11 4 -15 2 -10 -3 16 -17 57 -11 57 8 0 13 8 18 26
18 14 0 23 -4 19 -9 -8 -14 15 -25 48 -23 20 2 27 -2 25 -10 -5 -14 -68 -18
-68 -5 0 5 -5 5 -11 1 -6 -3 -28 -6 -50 -6 -21 0 -41 -4 -45 -9 -3 -5 -18 -1
-34 11 -34 24 -41 25 -33 4 5 -13 2 -15 -18 -9 -13 5 -29 8 -36 8 -6 0 -9 6
-6 12 2 8 -6 12 -23 11 -38 -1 -42 21 -4 26 16 3 30 1 30 -3 0 -5 14 -6 32 -2
25 5 30 3 23 -8 -5 -8 -4 -11 0 -6 13 11 16 45 5 52 -6 3 -7 -1 -4 -9 8 -21
-6 -20 -22 2 -13 16 -14 16 -8 -3 6 -20 5 -20 -10 -1 -9 11 -16 15 -16 9 0
-15 -38 -24 -47 -11 -3 7 -1 8 5 4 7 -4 12 -2 12 3 0 20 -20 11 -30 -11 -5
-13 -9 -17 -9 -10 -1 7 -5 11 -10 8 -5 -3 -14 1 -21 9 -10 12 -15 12 -37 -2
-24 -16 -26 -16 -38 1 -10 13 -14 14 -18 4 -4 -10 -6 -10 -6 1 -1 11 -5 10
-16 -5 -21 -28 -18 -33 13 -28 22 4 25 3 15 -7 -7 -7 -13 -20 -13 -29 0 -11
-10 -15 -35 -16 -35 0 -47 10 -22 19 9 4 9 6 0 6 -6 1 -15 -4 -18 -9 -4 -6
-12 -4 -21 5 -9 8 -24 15 -35 15 -11 0 -19 7 -19 18 0 12 2 14 9 4 6 -10 13
-8 32 7 13 11 22 21 19 21 -29 7 -39 7 -39 2 3 -21 -4 -22 -29 -6 -26 17 -27
17 -12 -1 14 -17 13 -18 -7 -13 -15 4 -20 2 -16 -8 2 -7 11 -10 19 -7 8 3 14
1 14 -5 0 -13 -24 -22 -36 -14 -5 4 -11 18 -12 32 -5 33 -12 38 -23 17 -6 -9
-15 -17 -22 -17 -7 0 -18 -9 -25 -20 -8 -13 -18 -17 -29 -13 -11 4 -15 2 -10
-3 16 -17 57 -11 57 8 0 13 8 18 26 18 14 0 23 -4 19 -9 -8 -14 15 -25 48 -23
20 2 27 -2 25 -10 -5 -14 -68 -18 -68 -5 0 5 -5 5 -11 1 -6 -3 -28 -6 -50 -6
-21 0 -41 -4 -45 -9 -3 -5 -18 -1 -34 11 -34 24 -41 25 -33 4 5 -13 2 -15 -18
-9 -13 5 -29 8 -36 8 -6 0 -9 6 -6 12 2 8 -6 12 -23 11 -38 -1 -42 21 -4 26
16 3 30 1 30 -3 0 -5 14 -6 32 -2 25 5 30 3 23 -8 -5 -8 -4 -11 0 -6 13 11 16
45 5 52 -6 3 -7 -1 -4 -9 8 -21 -6 -20 -22 2 -13 16 -14 16 -8 -3 6 -20 5 -20
-10 -1 -9 11 -16 15 -16 9 0 -15 -38 -24 -47 -11 -3 7 -1 8 5 4 7 -4 12 -2 12
3 0 20 -20 11 -30 -11 -5 -13 -9 -17 -9 -10 -1 7 -5 11 -10 8 -5 -3 -14 1 -21
9 -10 12 -15 12 -37 -2 -24 -16 -26 -16 -38 1 -10 13 -14 14 -18 4 -4 -10 -6
-10 -6 1 -1 11 -5 10 -16 -5 -21 -28 -18 -33 13 -28 22 4 25 3 15 -7 -7 -7
-13 -20 -13 -29 0 -11 -10 -15 -35 -16 -35 0 -47 10 -22 19 9 4 9 6 0 6 -6 1
-15 -4 -18 -9 -4 -6 -12 -4 -21 5 -9 8 -24 15 -35 15 -11 0 -19 7 -19 18 0 12
2 14 9 4 6 -10 13 -8 32 7 13 11 22 21 19 21 -29 7 -39 7 -39 2 3 -21 -4 -22
-29 -6 -26 17 -27 17 -12 -1 14 -17 13 -18 -7 -13 -15 4 -20 2 -16 -8 2 -7 11
-10 19 -7 8 3 14 1 14 -5 0 -13 -24 -22 -36 -14 -5 4 -11 18 -12 32 -5 33 -12
38 -23 17 -6 -9 -15 -17 -22 -17 -7 0 -18 -9 -25 -20 -8 -13 -18 -17 -29 -13
-11 4 -15 2 -10 -3 16 -17 57 -11 57 8 0 13 8 18 26 18 14 0 23 -4 19 -9 -8
-14 15 -25 48 -23 20 2 27 -2 25 -10 -5 -14 -68 -18 -68 -5 0 5 -5 5 -11 1 -6
-3 -28 -6 -50 -6 -21 0 -41 -4 -45 -9 -3 -5 -18 -1 -34 11 -34 24 -41 25 -33
4 5 -13 2 -15 -18 -9 -13 5 -29 8 -36 8 -6 0 -9 6 -6 12 2 8 -6 12 -23 11 -38
-1 -42 21 -4 26 16 3 30 1 30 -3 0 -5 14 -6 32 -2 25 5 30 3 23 -8 -5 -8 -4
-11 0 -6 13 11 16 45 5 52 -6 3 -7 -1 -4 -9 8 -21 -6 -20 -22 2 -13 16 -14 16
-8 -3 6 -20 5 -20 -10 -1 -9 11 -16 15 -16 9 0 -15 -38 -24 -47 -11 -3 7 -1 8
5 4 7 -4 12 -2 12 3 0 20 -20 11 -30 -11 -5 -13 -9 -17 -9 -10 -1 7 -5 11 -10
8 -5 -3 -14 1 -21 9 -10 12 -15 12 -37 -2 -24 -16 -26 -16 -38 1 -10 13 -14
14 -18 4 -4 -10 -6 -10 -6 1 -1 11 -5 10 -16 -5 -21 -28 -18 -33 13 -28 22 4
25 3 15 -7 -7 -7 -13 -20 -13 -29 0 -11 -10 -15 -35 -16 -35 0 -47 10 -22 19
9 4 9 6 0 6 -6 1 -15 -4 -18 -9 -4 -6 -12 -4 -21 5 -9 8 -24 15 -35 15 -11 0
-19 7 -19 18 0 12 2 14 9 4 6 -10 13 -8 32 7 13 11 22 21 19 21 -29 7 -39 7
-39 2 3 -21 -4 -22 -28 -6 -27 17 -28 17 -13 -1 14 -17 13 -18 -7 -13 -15 4
-20 2 -16 -8 2 -7 11 -10 19 -7 8 3 14 1 14 -5 0 -13 -24 -22 -36 -14 -5 4
-11 18 -12 32 -5 33 -12 38 -23 17 -6 -9 -15 -17 -22 -17 -7 0 -18 -9 -25 -20
-8 -13 -18 -17 -29 -13 -11 4 -15 2 -10 -3 16 -17 57 -11 57 8 0 13 8 18 26
18 14 0 23 -4 19 -9 -8 -14 15 -25 48 -23 20 2 27 -2 25 -10 -5 -14 -68 -18
-68 -5 0 5 -5 5 -11 1 -6 -3 -28 -6 -50 -6 -21 0 -41 -4 -45 -9 -3 -5 -18 -1
-34 11 -34 24 -41 25 -33 4 5 -13 2 -15 -18 -9 -13 5 -29 8 -36 8 -6 0 -9 6
-6 12 2 8 -6 12 -23 11 -38 -1 -42 21 -4 26 16 3 30 1 30 -3 0 -5 14 -6 32 -2
25 5 30 3 23 -8 -5 -8 -4 -11 0 -6 13 11 16 45 5 52 -6 3 -7 -1 -4 -9 8 -21
-6 -20 -22 2 -13 16 -14 16 -8 -3 6 -20 5 -20 -10 -1 -9 11 -16 15 -16 9 0
-15 -38 -24 -47 -11 -3 7 -1 8 5 4 7 -4 12 -2 12 3 0 20 -20 11 -30 -11 -5
-13 -9 -17 -9 -10 -1 7 -5 11 -10 8 -5 -3 -14 1 -21 9 -10 12 -15 12 -37 -2
-24 -16 -26 -16 -38 1 -10 13 -14 14 -18 4 -4 -10 -6 -10 -6 1 -1 11 -5 10
-16 -5 -21 -28 -18 -33 13 -28 22 4 25 3 15 -7 -7 -7 -13 -20 -13 -29 0 -11
-10 -15 -35 -16 -35 0 -47 10 -22 19 9 4 9 6 0 6 -6 1 -15 -4 -18 -9 -4 -6
-12 -4 -21 5 -9 8 -24 15 -35 15 -11 0 -19 7 -19 18 0 12 2 14 9 4 6 -10 13
-8 32 7 13 11 22 21 19 21 -29 7 -39 7 -39 2 3 -21 -4 -22 -28 -6 -27 17 -28
17 -13 -1 14 -17 13 -18 -7 -13 -15 4 -20 2 -16 -8 2 -7 11 -10 19 -7 8 3 14
1 14 -5 0 -13 -24 -22 -36 -14 -5 4 -11 18 -12 32 -5 33 -12 38 -23 17 -6 -9
-15 -17 -22 -17 -7 0 -18 -9 -25 -20 -8 -13 -18 -17 -29 -13 -11 4 -15 2 -10
-3 16 -17 57 -11 57 8 0 13 8 18 26 18 14 0 23 -4 19 -9 -8 -14 15 -25 48 -23
20 2 27 -2 25 -10 -5 -14 -68 -18 -68 -5 0 5 -5 5 -11 1 -6 -3 -28 -6 -50 -6
-21 0 -41 -4 -45 -9 -3 -5 -18 -1 -34 11 -34 24 -41 25 -33 4 5 -13 2 -15 -18
-9 -13 5 -29 8 -36 8 -6 0 -9 6 -6 12 2 8 -6 12 -23 11 -38 -1 -42 21 -4 26
16 3 30 1 30 -3 0 -5 14 -6 32 -2 25 5 30 3 23 -8 -5 -8 -4 -11 0 -6 13 11 16
45 5 52 -6 3 -7 -1 -4 -9 8 -21 -6 -20 -22 2 -13 16 -14 16 -8 -3 6 -20 5 -20
-10 -1 -9 11 -16 15 -16 9 0 -15 -38 -24 -47 -11 -3 7 -1 8 5 4 7 -4 12 -2 12
3 0 20 -20 11 -30 -11 -5 -13 -9 -17 -9 -10 -1 7 -5 11 -10 8 -5 -3 -14 1 -21
9 -10 12 -15 12 -37 -2 -24 -16 -26 -16 -38 1 -10 13 -14 14 -18 4 -4 -10 -6
-10 -6 1 -1 11 -5 10 -16 -5 -21 -28 -18 -33 13 -28 22 4 25 3 15 -7 -7 -7
-13 -20 -13 -29 0 -11 -10 -15 -35 -16 -35 0 -47 10 -22 19 9 4 9 6 0 6 -6 1
-15 -4 -18 -9 -4 -6 -12 -4 -21 5 -9 8 -24 15 -35 15 -11 0 -19 7 -19 18 0 12
2 14 9 4 6 -10 13 -8 32 7 13 11 22 21 19 21 -29 7 -39 7 -39 2 3 -21 -4 -22
-28 -6 -27 17 -28 17 -13 -1 14 -17 13 -18 -7 -13 -15 4 -20 2 -16 -8 2 -7 11
-10 19 -7 8 3 14 1 14 -5 0 -13 -24 -22 -36 -14 -5 4 -11 18 -12 32 -5 33 -12
38 -23 17 -6 -9 -15 -17 -22 -17 -7 0 -18 -9 -25 -20 -8 -13 -18 -17 -29 -13
-11 4 -15 2 -10 -3 16 -17 57 -11 57 8 0 13 8 18 26 18 14 0 23 -4 19 -9 -8
-14 15 -25 48 -23 20 2 27 -2 25 -10 -5 -14 -68 -18 -68 -5 0 5 -5 5 -11 1 -6
-3 -28 -6 -50 -6 -21 0 -41 -4 -45 -9 -3 -5 -18 -1 -34 11 -34 24 -41 25 -33
4 5 -13 2 -15 -18 -9 -13 5 -29 8 -36 8 -6 0 -9 6 -6 12 2 8 -6 12 -23 11 -38
-1 -42 21 -4 26 16 3 30 1 30 -3 0 -5 14 -6 32 -2 25 5 30 3 23 -8 -5 -8 -4
-11 0 -6 13 11 16 45 5 52 -6 3 -7 -1 -4 -9 8 -21 -6 -20 -22 2 -13 16 -14 16
-8 -3 6 -20 5 -20 -10 -1 -9 11 -16 15 -16 9 0 -15 -38 -24 -47 -11 -3 7 -1 8
5 4 7 -4 12 -2 12 3 0 20 -20 11 -30 -11 -5 -13 -9 -17 -9 -10 -1 7 -5 11 -10
8 -5 -3 -14 1 -21 9 -10 12 -15 12 -37 -2 -24 -16 -26 -16 -38 1 -10 13 -14
14 -18 4 -4 -10 -6 -10 -6 1 -1 11 -5 10 -16 -5 -21 -28 -18 -33 13 -28 22 4
25 3 15 -7 -7 -7 -13 -20 -13 -29 0 -11 -10 -15 -35 -16 -35 0 -47 10 -23 19
10 4 10 6 1 6 -6 1 -15 -4 -18 -9 -4 -6 -12 -4 -21 5 -9 8 -24 15 -35 15 -11
0 -19 7 -19 18 0 12 2 14 9 4 6 -10 13 -8 32 7 13 11 22 21 19 21 -29 7 -39 7
-39 2 3 -21 -4 -22 -28 -6 -27 17 -28 17 -13 -1 14 -17 13 -18 -7 -13 -15 4
-20 2 -16 -8 2 -7 11 -10 19 -7 8 3 14 1 14 -5 0 -13 -24 -22 -36 -14 -5 4
-11 18 -12 32 -5 33 -12 38 -23 17 -6 -9 -15 -17 -22 -17 -7 0 -18 -9 -25 -20
-8 -13 -18 -17 -29 -13 -11 4 -15 2 -10 -3 16 -17 57 -11 57 8 0 13 8 18 26
18 14 0 23 -4 19 -9 -8 -14 15 -25 48 -23 20 2 27 -2 25 -10 -5 -14 -68 -18
-68 -5 0 5 -5 5 -11 1 -6 -3 -28 -6 -50 -6 -21 0 -41 -4 -45 -9 -3 -5 -18 -1
-34 11 -34 24 -41 25 -33 4 5 -13 2 -15 -18 -9 -13 5 -29 8 -36 8 -6 0 -9 6
-6 12 2 8 -6 12 -23 11 -38 -1 -42 21 -4 26 16 3 30 1 30 -3 0 -5 14 -6 32 -2
25 5 30 3 23 -8 -5 -8 -4 -11 0 -6 13 11 16 45 5 52 -6 3 -7 -1 -4 -9 8 -21
-6 -20 -22 2 -13 16 -14 16 -8 -3 6 -20 5 -20 -10 -1 -9 11 -16 15 -16 9 0
-15 -38 -24 -47 -11 -3 7 -1 8 5 4 7 -4 12 -2 12 3 0 20 -20 11 -30 -11 -5
-13 -9 -17 -9 -10 -1 7 -5 11 -10 8 -5 -3 -14 1 -21 9 -10 12 -15 12 -37 -2
-24 -16 -26 -16 -38 1 -10 13 -14 14 -18 4 -4 -10 -6 -10 -6 1 -1 11 -5 10
-16 -5 -21 -28 -18 -33 13 -28 22 4 25 3 15 -7 -7 -7 -13 -20 -13 -29 0 -11
-10 -15 -35 -16 -35 0 -47 10 -22 19 9 4 9 6 0 6 -6 1 -15 -4 -18 -9 -4 -6
-12 -4 -21 5 -9 8 -24 15 -35 15 -11 0 -19 7 -19 18 0 12 2 14 9 4 6 -10 13
-8 32 7 13 11 22 21 19 21 -29 7 -39 7 -39 2 3 -21 -4 -22 -28 -6 -27 17 -28
17 -13 -1 14 -17 13 -18 -7 -13 -15 4 -20 2 -16 -8 2 -7 11 -10 19 -7 8 3 14
1 14 -5 0 -13 -24 -22 -36 -14 -5 4 -11 18 -12 32 -5 33 -12 38 -23 17 -6 -9
-15 -17 -22 -17 -7 0 -18 -9 -25 -20 -8 -13 -18 -17 -29 -13 -11 4 -15 2 -10
-3 16 -17 57 -11 57 8 0 13 8 18 26 18 14 0 23 -4 19 -9 -8 -14 15 -25 48 -23
20 2 27 -2 25 -10 -5 -14 -68 -18 -68 -5 0 5 -5 5 -11 1 -6 -3 -28 -6 -50 -6
-21 0 -41 -4 -45 -9 -3 -5 -18 -1 -34 11 -34 24 -41 25 -33 4 5 -13 2 -15 -18
-9 -13 5 -29 8 -36 8 -6 0 -9 6 -6 12 2 8 -6 12 -23 11 -38 -1 -42 21 -4 26
16 3 30 1 30 -3 0 -5 14 -6 32 -2 25 5 30 3 23 -8 -5 -8 -4 -11 0 -6 13 11 16
45 5 52 -6 3 -7 -1 -4 -9 8 -21 -6 -20 -22 2 -13 16 -14 16 -8 -3 6 -20 5 -20
-10 -1 -9 11 -16 15 -16 9 0 -15 -38 -24 -47 -11 -3 7 -1 8 5 4 7 -4 12 -2 12
3 0 20 -20 11 -30 -11 -5 -13 -9 -17 -9 -10 -1 7 -5 11 -10 8 -5 -3 -14 1 -21
9 -10 12 -15 12 -37 -2 -24 -16 -26 -16 -38 1 -10 13 -14 14 -18 4 -4 -10 -6
-10 -6 1 -1 11 -5 10 -16 -5 -21 -28 -18 -33 13 -28 22 4 25 3 15 -7 -7 -7
-13 -20 -13 -29 0 -11 -10 -15 -35 -16 -35 0 -47 10 -22 19 9 4 9 6 0 6 -6 1
-15 -4 -18 -9 -4 -6 -12 -4 -21 5 -9 8 -24 15 -35 15 -11 0 -19 7 -19 18 0 12
2 14 9 4 6 -10 13 -8 32 7 13 11 22 21 19 21 -29 7 -39 7 -39 2 3 -21 -4 -22
-28 -6 -27 17 -28 17 -13 -1 14 -17 13 -18 -7 -13 -15 4 -20 2 -16 -8 2 -7 11
-10 19 -7 8 3 14 1 14 -5 0 -13 -24 -22 -36 -14 -5 4 -11 18 -12 32 -5 33 -12
38 -23 17 -6 -9 -15 -17 -22 -17 -7 0 -18 -9 -25 -20 -8 -13 -18 -17 -29 -13
-11 4 -15 2 -10 -3 16 -17 57 -11 57 8 0 13 8 18 26 18 14 0 23 -4 19 -9 -8
-14 15 -25 48 -23 20 2 27 -2 25 -10 -5 -14 -68 -18 -68 -5 0 5 -5 5 -11 1 -6
-3 -28 -6 -50 -6 -21 0 -41 -4 -45 -9 -3 -5 -18 -1 -34 11 -34 24 -41 25 -33
4 5 -13 2 -15 -18 -9 -13 5 -29 8 -36 8 -6 0 -9 6 -6 12 2 8 -6 12 -23 11 -38
-1 -42 21 -4 26 16 3 30 1 30 -3 0 -5 14 -6 32 -2 25 5 30 3 23 -8 -5 -8 -4
-11 0 -6 13 11 16 45 5 52 -6 3 -7 -1 -4 -9 8 -21 -6 -20 -22 2 -13 16 -14 16
-8 -3 6 -20 5 -20 -10 -1 -9 11 -16 15 -16 9 0 -15 -38 -24 -47 -11 -3 7 -1 8
5 4 7 -4 12 -2 12 3 0 20 -20 11 -30 -11 -5 -13 -9 -17 -9 -10 -1 7 -5 11 -10
8 -5 -3 -14 1 -21 9 -10 12 -15 12 -37 -2 -24 -16 -26 -16 -38 1 -10 13 -14
14 -18 4 -4 -10 -6 -10 -6 1 -1 11 -5 10 -16 -5 -21 -28 -18 -33 13 -28 22 4
25 3 15 -7 -7 -7 -13 -20 -13 -29 0 -11 -10 -15 -35 -16 -35 0 -47 10 -23 19
10 4 10 6 1 6 -6 1 -15 -4 -18 -9 -4 -6 -12 -4 -21 5 -9 8 -24 15 -35 15 -11
0 -19 7 -19 18 0 12 2 14 9 4 6 -10 13 -8 32 7 13 11 22 21 19 21 -29 7 -39 7
-39 2 3 -21 -4 -22 -28 -6 -27 17 -28 17 -13 -1 14 -17 13 -18 -7 -13 -15 4
-20 2 -16 -8 2 -7 11 -10 19 -7 8 3 14 1 14 -5 0 -13 -24 -22 -36 -14 -5 4
-11 18 -12 32 -5 33 -12 38 -23 17 -6 -9 -15 -17 -22 -17 -7 0 -18 -9 -25 -20
-8 -13 -18 -17 -29 -13 -11 4 -15 2 -10 -3 16 -17 57 -11 57 8 0 13 8 18 26
18 14 0 23 -4 19 -9 -8 -14 15 -25 48 -23 20 2 27 -2 25 -10 -5 -14 -68 -18
-68 -5 0 5 -5 5 -11 1 -6 -3 -28 -6 -50 -6 -21 0 -41 -4 -45 -9 -3 -5 -18 -1
-34 11 -34 24 -41 25 -33 4 5 -13 2 -15 -18 -9 -13 5 -29 8 -36 8 -6 0 -9 6
-6 12 2 8 -6 12 -23 11 -38 -1 -42 21 -4 26 16 3 30 1 30 -3 0 -5 14 -6 32 -2
25 5 30 3 23 -8 -5 -8 -4 -11 0 -6 13 11 16 45 5 52 -6 3 -7 -1 -4 -9 8 -21
-6 -20 -22 2 -13 16 -14 16 -8 -3 6 -20 5 -20 -10 -1 -9 11 -16 15 -16 9 0
-15 -38 -24 -47 -11 -3 7 -1 8 5 4 7 -4 12 -2 12 3 0 20 -20 11 -30 -11 -5
-13 -9 -17 -9 -10 -1 7 -5 11 -10 8 -5 -3 -14 1 -21 9 -10 12 -15 12 -37 -2
-24 -16 -26 -16 -38 1 -10 13 -14 14 -18 4 -4 -10 -6 -10 -6 1 -1 11 -5 10
-16 -5 -21 -28 -18 -33 13 -28 22 4 25 3 15 -7 -7 -7 -13 -20 -13 -29 0 -11
-10 -15 -35 -16 -35 0 -47 10 -23 19 10 4 10 6 1 6 -6 1 -15 -4 -18 -9 -4 -6
-12 -4 -21 5 -9 8 -24 15 -35 15 -11 0 -19 7 -19 18 0 12 2 14 9 4 6 -10 13
-8 32 7 13 11 22 21 19 21 -29 7 -39 7 -39 2 3 -21 -4 -22 -28 -6 -27 17 -28
17 -13 -1 14 -17 13 -18 -7 -13 -15 4 -20 2 -16 -8 2 -7 11 -10 19 -7 8 3 14
1 14 -5 0 -13 -24 -22 -36 -14 -5 4 -11 18 -12 32 -5 33 -12 38 -23 17 -6 -9
-15 -17 -22 -17 -7 0 -18 -9 -25 -20 -8 -13 -18 -17 -29 -13 -11 4 -15 2 -10
-3 16 -17 57 -11 57 8 0 13 8 18 26 18 14 0 23 -4 19 -9 -8 -14 15 -25 48 -23
20 2 27 -2 25 -10 -5 -14 -68 -18 -68 -5 0 5 -5 5 -11 1 -6 -3 -28 -6 -50 -6
-21 0 -41 -4 -45 -9 -3 -5 -18 -1 -34 11 -34 24 -41 25 -33 4 5 -13 2 -15 -18
-9 -13 5 -29 8 -36 8 -6 0 -9 6 -6 12 2 8 -6 12 -23 11 -38 -1 -42 21 -4 26
16 3 30 1 30 -3 0 -5 14 -6 32 -2 25 5 30 3 23 -8 -5 -8 -4 -11 0 -6 13 11 16
45 5 52 -6 3 -7 -1 -4 -9 8 -21 -6 -20 -22 2 -13 16 -14 16 -8 -3 6 -20 5 -20
-10 -1 -9 11 -16 15 -16 9 0 -15 -38 -24 -47 -11 -3 7 -1 8 5 4 7 -4 12 -2 12
3 0 20 -20 11 -30 -11 -5 -13 -9 -17 -9 -10 -1 7 -5 11 -10 8 -5 -3 -14 1 -21
9 -10 12 -15 12 -37 -2 -24 -16 -26 -16 -38 1 -10 13 -14 14 -18 4 -4 -10 -6
-10 -6 1 -1 11 -5 10 -16 -5 -21 -28 -18 -33 13 -28 22 4 25 3 15 -7 -7 -7
-13 -20 -13 -29 0 -11 -10 -15 -35 -16 -35 0 -47 10 -22 19 9 4 9 6 0 6 -6 1
-15 -4 -18 -9 -4 -6 -12 -4 -21 5 -9 8 -24 15 -35 15 -11 0 -19 7 -19 18 0 12
2 14 9 4 6 -10 13 -8 32 7 13 11 22 21 19 21 -29 7 -39 7 -39 2 3 -21 -4 -22
-28 -6 -27 17 -28 17 -13 -1 14 -17 13 -18 -7 -13 -15 4 -20 2 -16 -8 2 -7 11
-10 19 -7 8 3 14 1 14 -5 0 -13 -24 -22 -36 -14 -5 4 -11 18 -12 32 -5 33 -12
38 -23 17 -6 -9 -15 -17 -22 -17 -7 0 -18 -9 -25 -20 -8 -13 -18 -17 -29 -13
-11 4 -15 2 -10 -3 16 -17 57 -11 57 8 0 13 8 18 26 18 14 0 23 -4 19 -9 -8
-14 15 -25 48 -23 20 2 27 -2 25 -10 -5 -14 -68 -18 -68 -5 0 5 -5 5 -11 1 -6
-3 -28 -6 -50 -6 -21 0 -41 -4 -45 -9 -3 -5 -18 -1 -34 11 -34 24 -41 25 -33
4 5 -13 2 -15 -18 -9 -13 5 -29 8 -36 8 -6 0 -9 6 -6 12 2 8 -6 12 -23 11 -38
-1 -42 21 -4 26 16 3 30 1 30 -3 0 -5 14 -6 32 -2 25 5 30 3 23 -8 -5 -8 -4
-11 0 -6 13 11 16 45 5 52 -6 3 -7 -1 -4 -9 8 -21 -6 -20 -22 2 -13 16 -14 16
-8 -3 6 -20 5 -20 -10 -1 -9 11 -16 15 -16 9 0 -15 -38 -24 -47 -11 -3 7 -1 8
5 4 7 -4 12 -2 12 3 0 20 -20 11 -30 -11 -5 -13 -9 -17 -9 -10 -1 7 -5 11 -10
8 -5 -3 -14 1 -21 9 -10 12 -15 12 -37 -2 -24 -16 -26 -16 -38 1 -10 13 -14
14 -18 4 -4 -10 -6 -10 -6 1 -1 11 -5 10 -16 -5 -21 -28 -18 -33 13 -28 22 4
25 3 15 -7 -7 -7 -13 -20 -13 -29 0 -11 -10 -15 -35 -16 -35 0 -47 10 -22 19
9 4 9 6 0 6 -6 1 -15 -4 -18 -9 -4 -6 -12 -4 -21 5 -9 8 -24 15 -35 15 -11 0
-19 7 -19 18 0 12 2 14 9 4 6 -10 13 -8 32 7 13 11 22 21 19 21 -29 7 -39 7
-39 2 3 -21 -4 -22 -28 -6 -27 17 -28 17 -13 -1 14 -17 13 -18 -7 -13 -15 4
-20 2 -16 -8 2 -7 11 -10 19 -7 8 3 14 1 14 -5 0 -13 -24 -22 -36 -14 -5 4
-11 18 -12 32 -5 33 -12 38 -23 17 -6 -9 -15 -17 -22 -17 -7 0 -18 -9 -25 -20
-8 -13 -18 -17 -29 -13 -11 4 -15 2 -10 -3 16 -17 57 -11 57 8 0 13 8 18 26
18 14 0 23 -4 19 -9 -8 -14 15 -25 48 -23 20 2 27 -2 25 -10 -5 -14 -68 -18
-68 -5 0 5 -5 5 -11 1 -6 -3 -28 -6 -50 -6 -21 0 -41 -4 -45 -9 -3 -5 -18 -1
-34 11 -34 24 -41 25 -33 4 5 -13 2 -15 -18 -9 -13 5 -29 8 -36 8 -6 0 -9 6
-6 12 2 8 -6 12 -23 11 -38 -1 -42 21 -4 26 16 3 30 1 30 -3 0 -5 14 -6 32 -2
25 5 30 3 23 -8 -5 -8 -4 -11 0 -6 13 11 16 45 5 52 -6 3 -7 -1 -4 -9 8 -21
-6 -20 -22 2 -13 16 -14 16 -8 -3 6 -20 5 -20 -10 -1 -9 11 -16 15 -16 9 0
-15 -38 -24 -47 -11 -3 7 -1 8 5 4 7 -4 12 -2 12 3 0 20 -20 11 -30 -11 -5
-13 -9 -17 -9 -10 -1 7 -5 11 -10 8 -5 -3 -14 1 -21 9 -10 12 -15 12 -37 -2
-24 -16 -26 -16 -38 1 -10 13 -14 14 -18 4 -4 -10 -6 -10 -6 1 -1 11 -5 10
-16 -5 -21 -28 -18 -33 13 -28 22 4 25 3 15 -7 -7 -7 -13 -20 -13 -29 0 -11
-10 -15 -35 -16 -35 0 -47 10 -22 19 9 4 9 6 0 6 -6 1 -15 -4 -18 -9 -4 -6
-12 -4 -21 5 -9 8 -24 15 -35 15 -11 0 -19 7 -19 18 0 12 2 14 9 4 6 -10 13
-8 32 7 13 11 22 21 19 21 -29 7 -39 7 -39 2 3 -21 -4 -22 -29 -6 -23 15 -25
15 -13 1z"/>
<path d="M5030 5740 c0 -5 -9 -10 -20 -10 -10 0 -23 -6 -27 -14 -4 -7 -15 -16
-23 -19 -12 -4 -11 -6 3 -6 14 -1 17 -10 17 -51 l0 -50 -60 0 c-59 0 -82 14
-37 23 20 4 19 4 -4 6 -15 0 -32 8 -39 16 -7 8 -20 15 -30 15 -10 0 -23 -7
-30 -15 -8 -9 -32 -16 -64 -17 l-51 -2 48 -3 c70 -6 57 -22 -20 -26 l-68 -3
70 -2 c57 -2 72 -6 82 -21 11 -17 9 -20 -10 -24 -20 -4 -19 -4 4 -6 24 -1 55
-26 74 -60 6 -11 4 -13 -8 -8 -10 3 -17 2 -17 -3 0 -6 8 -10 19 -10 10 0 24
-7 31 -15 16 -19 41 -19 66 0 10 8 33 15 49 16 l30 1 -32 9 c-18 5 -35 18 -38
29 -4 11 -11 20 -16 20 -5 0 -9 5 -9 10 0 6 14 10 30 10 30 0 41 -14 18 -23
-10 -4 -10 -6 0 -6 7 -1 10 -5 7 -11 -4 -6 13 -10 44 -10 28 0 51 5 52 10 0 6
1 27 1 48 1 20 6 40 12 44 8 5 7 8 -1 8 -9 0 -13 17 -13 49 0 43 3 50 23 54
l22 4 -22 2 c-13 0 -23 8 -23 16 0 8 -7 15 -16 15 -8 0 -12 5 -9 10 3 6 1 10
-4 10 -6 0 -11 -4 -11 -10z"/>
<path d="M5213 5638 c-6 -7 -13 -21 -16 -30 -4 -10 -17 -18 -29 -19 -19 0 -20
-2 -5 -7 15 -6 11 -14 -25 -54 -24 -25 -44 -50 -45 -54 -1 -4 -10 -9 -19 -10
-28 -4 -28 -14 -1 -14 15 0 27 -4 27 -9 0 -13 55 -24 80 -16 11 3 19 11 17 18
-1 7 12 10 38 8 22 -2 36 1 32 5 -4 5 -18 9 -29 9 -30 0 -34 23 -6 34 12 4 22
12 20 17 -1 5 7 11 19 12 15 3 18 6 10 11 -6 4 -9 15 -5 24 5 14 22 17 88 19
l81 2 -72 3 c-40 2 -73 8 -73 13 0 17 -39 50 -59 50 -10 0 -23 -6 -28 -12z"/>
<path d="M2727 5514 c-4 -4 -24 -7 -44 -6 -28 1 -34 -1 -23 -8 13 -8 12 -10
-2 -10 -10 0 -18 -3 -18 -8 0 -4 -10 -13 -21 -21 -18 -11 -23 -11 -31 1 -7 10
-8 9 -4 -5 3 -10 -3 -26 -14 -37 -11 -11 -20 -24 -20 -30 0 -5 -12 -11 -27
-11 -22 -1 -23 -3 -7 -6 16 -3 20 -10 16 -29 l-4 -25 -32 19 c-40 24 -189 27
-221 6 -11 -8 -28 -14 -38 -14 -10 0 -16 -4 -12 -9 3 -6 -4 -15 -15 -21 -12
-6 -25 -22 -30 -36 -7 -18 -16 -23 -32 -21 -13 2 -17 2 -11 0 10 -4 10 -9 1
-26 -7 -12 -11 -25 -10 -29 1 -5 -5 -8 -13 -8 -8 0 -15 -5 -15 -11 0 -5 5 -7
10 -4 6 3 10 -3 10 -14 0 -20 -5 -21 -170 -21 -144 0 -170 -2 -170 -15 0 -8
-8 -15 -17 -16 -15 0 -15 -2 2 -9 11 -5 106 -9 210 -9 105 0 199 4 210 9 17 7
17 9 3 9 -19 1 -26 21 -8 21 6 0 9 3 9 8 -5 27 3 42 24 43 16 1 18 2 5 6 -21
5 -22 12 -3 37 7 10 18 15 24 11 6 -3 9 0 5 8 -6 16 61 61 77 52 5 -4 9 -1 9
6 0 18 124 4 149 -17 11 -10 17 -22 14 -27 -4 -6 0 -8 10 -4 9 3 19 2 22 -3 3
-5 -9 -11 -27 -13 -18 -2 -6 -4 27 -5 33 0 55 2 48 4 -13 6 -6 35 11 46 8 6 8
8 0 8 -8 0 -8 10 0 35 6 21 16 33 23 31 7 -3 15 0 19 6 4 7 3 8 -4 4 -22 -13
-12 9 19 42 27 29 41 36 62 33 4 0 7 4 7 9 0 6 27 10 61 10 91 0 168 -45 160
-92 0 -5 6 -8 15 -8 10 0 14 -5 10 -16 -3 -8 -2 -13 3 -10 10 6 31 -37 31 -64
0 -28 19 -25 52 7 26 25 36 27 107 28 55 0 82 -4 93 -15 9 -8 34 -30 56 -48
23 -19 41 -41 41 -50 1 -31 7 -62 14 -68 4 -4 7 -16 7 -26 0 -12 8 -18 23 -19
19 -1 202 0 218 1 4 0 9 9 12 20 8 29 -15 36 -115 34 -80 -1 -108 6 -75 19 9
4 9 6 0 6 -7 1 -10 8 -7 16 4 8 1 15 -6 15 -6 0 -8 5 -5 10 3 6 1 10 -5 10 -7
0 -9 7 -6 16 3 8 2 12 -4 9 -6 -3 -10 0 -10 8 0 8 -7 17 -15 21 -8 3 -15 12
-15 21 0 8 -12 20 -26 25 -16 6 -23 14 -18 22 4 7 4 10 -1 6 -10 -9 -47 10
-41 21 3 4 -46 8 -109 8 -62 -1 -112 -4 -109 -9 9 -14 -13 -8 -26 7 -11 13 -6
15 31 17 l44 1 -45 6 c-25 3 -44 9 -43 13 4 12 -54 64 -94 86 -21 11 -37 24
-36 28 2 11 -140 18 -150 8z"/>
<path d="M5031 5463 c0 -7 -13 -16 -28 -19 -29 -8 -105 -74 -85 -74 7 0 12
-14 12 -31 0 -27 -2 -30 -15 -19 -13 11 -14 10 -9 -3 3 -9 13 -19 22 -22 24
-7 44 -43 49 -86 l4 -35 -42 2 c-26 1 -48 -3 -56 -12 -8 -8 -32 -14 -53 -14
-21 0 -40 -5 -42 -11 -2 -6 -17 -11 -33 -11 -17 0 -47 -13 -69 -29 -22 -16
-48 -29 -58 -29 -10 0 -18 -4 -18 -10 0 -5 -7 -10 -15 -10 -8 0 -20 -9 -27
-20 -9 -14 -19 -18 -38 -14 -20 4 -22 3 -10 -5 13 -9 12 -11 -3 -11 -10 0 -16
-4 -12 -10 7 -12 -30 -50 -50 -50 -8 0 -12 -6 -9 -13 6 -17 -43 -60 -50 -44
-4 7 -4 2 -2 -11 3 -14 -1 -25 -10 -29 -8 -3 -11 -9 -9 -14 3 -4 -2 -17 -12
-27 -10 -10 -20 -27 -22 -37 -7 -41 -20 -53 -56 -51 -19 1 -35 -2 -35 -6 0 -5
16 -8 34 -8 l35 0 -13 -37 c-11 -32 -19 -39 -47 -44 l-34 -6 31 -2 c28 -1 30
-4 26 -30 -3 -23 -11 -31 -31 -35 -39 -8 -162 -20 -193 -20 -15 0 -25 -3 -22
-8 7 -11 -3 -10 -29 3 -18 9 -20 9 -10 -2 10 -10 7 -15 -18 -26 -17 -7 -39
-13 -49 -13 -11 0 -31 -5 -47 -12 -15 -6 -31 -11 -35 -10 -5 1 -8 -1 -8 -6 0
-8 -42 -27 -83 -36 -16 -4 -38 -16 -50 -26 -11 -11 -26 -20 -31 -20 -6 0 -17
-13 -24 -30 -10 -22 -20 -30 -40 -30 -20 0 -23 -3 -12 -9 8 -6 18 -7 24 -4 6
4 6 -1 1 -13 -4 -10 -7 -31 -6 -46 l1 -27 -122 -4 -123 -3 128 -2 127 -2 0
-24 c0 -18 -7 -26 -22 -29 -22 -4 -22 -4 -2 -6 23 -1 39 -37 20 -45 -7 -3 -7
-5 2 -5 7 -1 12 -16 12 -40 0 -24 8 -48 21 -65 11 -14 17 -31 13 -37 -4 -7 -3
-9 2 -6 6 3 27 -10 48 -29 20 -19 44 -34 51 -34 8 0 29 -9 47 -20 18 -11 27
-20 19 -20 -25 0 -3 -12 26 -15 15 -1 48 -9 73 -16 l45 -14 -30 -7 c-25 -6
-23 -7 11 -4 l40 4 -4 -62 c-3 -33 -8 -63 -13 -64 -5 -2 -6 -8 -3 -13 3 -6 3
-46 -1 -89 -6 -70 -9 -79 -28 -83 -22 -4 -22 -4 1 -6 19 -1 22 -6 22 -45 0
-38 -3 -45 -22 -49 -22 -4 -22 -4 -2 -6 29 -2 21 -48 -10 -54 -20 -4 -20 -4 2
-6 27 -1 32 -41 5 -42 -11 0 -13 -3 -5 -6 6 -2 12 -13 12 -23 0 -15 -9 -20
-42 -23 l-43 -4 43 -1 c40 -2 42 -3 42 -35 0 -18 -8 -43 -17 -56 -9 -14 -11
-21 -5 -17 21 13 15 -81 -5 -94 -17 -11 -17 -11 1 -6 17 6 18 2 12 -31 -3 -21
-6 -55 -6 -75 0 -29 -4 -38 -17 -38 -15 0 -15 -2 -4 -9 19 -12 7 -39 -21 -44
-17 -3 -16 -4 5 -2 23 1 27 -2 27 -27 0 -25 -4 -28 -32 -29 -31 -2 -31 -2 -5
-6 18 -3 27 -10 27 -23 0 -13 -9 -20 -27 -23 l-28 -4 26 -2 c26 -1 27 -2 27
-71 0 -38 -3 -70 -7 -70 -3 0 -6 -26 -6 -57 -1 -64 -15 -245 -21 -254 -5 -10
-15 -177 -18 -336 -3 -142 -2 -153 15 -153 18 0 18 -3 34 199 5 52 12 79 23
89 9 7 11 11 5 7 -8 -4 -13 0 -13 10 0 9 4 14 9 10 5 -3 13 -1 16 5 4 6 1 9
-7 8 -19 -4 -18 31 3 247 10 105 19 196 19 203 0 6 11 12 25 12 14 0 25 4 25
9 0 4 -11 6 -25 3 -24 -4 -35 14 -18 32 4 3 6 29 4 55 -2 45 0 50 21 54 l23 4
-22 2 c-18 1 -23 7 -23 27 0 17 4 23 13 18 9 -6 9 -4 -1 8 -16 20 -6 46 21 51
21 4 21 4 -1 6 -23 1 -23 2 -18 117 3 83 8 119 17 125 11 7 11 9 1 9 -9 0 -11
7 -6 23 4 12 7 34 6 49 -2 20 3 28 20 31 l23 4 -22 2 c-13 0 -23 6 -23 12 0 5
5 7 12 3 7 -5 8 -3 3 6 -4 7 -2 16 6 21 10 6 11 9 2 9 -20 0 -15 38 5 43 14 4
14 5 1 6 -14 1 -16 9 -11 49 3 26 10 50 16 54 8 6 7 8 -1 8 -7 0 -10 7 -6 15
7 19 10 70 12 192 l1 92 33 4 32 4 -32 1 c-26 2 -30 5 -26 21 3 13 16 21 37
24 l31 4 -32 1 c-41 2 -47 32 -7 32 30 0 115 -20 129 -30 6 -4 24 -8 41 -8 17
0 58 -5 90 -11 32 -5 112 -13 177 -16 64 -4 117 -10 117 -14 0 -4 170 -8 377
-8 207 1 368 3 358 7 -10 4 55 12 146 20 263 21 269 21 269 29 0 9 79 27 158
37 48 6 52 5 52 -15 0 -11 -6 -21 -12 -21 -7 0 -5 -5 5 -11 26 -15 21 -37 -10
-42 l-28 -4 26 -2 c21 -1 27 -6 27 -26 0 -16 -6 -25 -17 -26 -11 0 -10 -3 5
-9 17 -7 22 -17 22 -49 1 -33 -3 -40 -21 -44 l-22 -4 23 -2 c19 -1 22 -6 22
-48 0 -27 3 -58 6 -70 5 -18 1 -22 -23 -26 l-28 -4 28 -2 c22 -1 27 -6 27 -25
0 -18 -7 -26 -22 -29 l-23 -4 23 -2 c27 -1 41 -29 21 -42 -12 -7 -12 -9 0 -9
9 0 12 -8 9 -25 -3 -14 -1 -28 3 -31 13 -7 11 -34 -2 -34 -5 0 -8 4 -5 8 3 5
-1 9 -8 9 -8 0 -12 -6 -9 -14 3 -7 11 -13 18 -13 22 0 34 -145 13 -153 -8 -4
-7 -6 3 -6 26 -1 27 -138 1 -144 -16 -4 -16 -5 1 -6 19 -1 24 -41 5 -41 -7 0
-5 -5 4 -12 18 -14 28 -104 13 -128 -5 -9 -4 -11 3 -6 7 4 12 3 12 -3 0 -5
-15 -12 -32 -14 l-33 -4 31 -1 c27 -2 32 -7 38 -33 11 -56 10 -58 -44 -56 -27
0 -53 -2 -56 -6 -4 -4 18 -7 49 -7 l57 0 0 -52 c0 -29 7 -116 15 -193 18 -177
19 -262 3 -268 -8 -3 -6 -6 5 -6 9 -1 17 -2 18 -3 0 -2 6 -61 12 -133 11 -115
14 -130 31 -133 18 -4 19 2 13 117 -4 79 -2 121 4 121 6 0 8 3 6 8 -6 9 -11
53 -42 367 -14 137 -25 266 -25 287 0 35 2 37 38 41 l37 4 -37 1 c-31 2 -38 6
-38 22 0 16 7 20 33 21 l32 2 -30 4 c-16 3 -33 9 -36 15 -4 6 -7 51 -8 101 -1
49 -3 93 -5 96 -9 15 -15 201 -7 201 5 0 11 6 14 13 3 8 -1 14 -9 14 -7 0 -10
-5 -7 -10 3 -6 1 -7 -5 -3 -7 4 -12 13 -12 21 0 11 19 15 78 18 l77 3 -77 2
c-72 2 -78 4 -78 23 0 16 5 20 20 16 11 -3 23 0 27 5 3 6 2 9 -3 6 -27 -16
-65 26 -39 44 6 5 6 8 -2 8 -8 0 -13 13 -13 29 0 25 3 28 23 25 20 -4 20 -4 2
5 -11 4 -24 6 -28 4 -5 -3 -7 41 -6 96 1 56 -1 105 -5 108 -11 12 -6 91 7 96
7 3 5 6 -6 6 -14 1 -17 9 -14 51 1 28 -1 50 -5 50 -4 0 -8 4 -8 8 0 8 62 34
77 31 19 -3 46 2 40 8 -8 7 47 43 66 43 6 0 25 14 41 30 16 17 33 30 38 30 4
0 8 6 8 14 0 8 6 21 14 28 7 8 16 24 20 35 4 12 15 24 24 26 15 4 15 5 -2 6
-15 1 -17 6 -11 28 3 15 8 73 11 129 l4 102 -56 51 c-32 30 -71 55 -94 61 -22
6 -46 17 -55 26 -8 8 -15 13 -15 10 0 -4 -16 1 -36 9 -20 8 -44 15 -52 15 -27
0 -102 32 -97 41 3 4 -3 6 -13 4 -10 -2 -56 1 -100 7 -81 10 -82 11 -83 39 -2
33 -3 37 -14 63 -5 12 -3 21 6 28 11 8 11 9 -3 5 -10 -4 -18 1 -21 14 -3 10
-1 19 4 19 5 0 9 5 9 11 0 5 -4 8 -9 4 -5 -3 -12 -1 -15 4 -4 5 2 12 11 14 13
3 14 5 3 6 -20 1 -80 102 -76 127 2 10 1 13 -1 6 -3 -7 -9 -10 -14 -6 -5 3 -7
10 -3 15 3 5 0 8 -6 7 -6 -2 -19 7 -27 20 -13 18 -13 22 -2 23 8 0 -2 5 -21
12 -45 15 -52 44 -13 50 19 3 15 5 -12 4 -26 -1 -39 3 -37 11 1 7 -2 12 -7 12
-5 0 -11 6 -14 13 -2 6 -3 4 -2 -5 2 -10 -1 -18 -6 -18 -9 0 -13 15 -10 33 1
5 -2 6 -6 4 -10 -6 -82 26 -92 40 -8 14 -146 60 -203 68 -27 4 -48 12 -48 17
0 5 -8 8 -17 7 -46 -4 -63 1 -63 20 0 15 8 21 38 24 l37 4 -37 1 c-21 1 -38 7
-38 12 0 6 10 9 23 7 12 -2 16 -2 10 0 -19 7 -16 23 5 23 14 0 15 2 2 10 -10
6 -11 10 -2 10 6 0 12 10 12 23 0 13 6 29 13 36 10 11 10 13 0 7 -9 -5 -13 0
-13 13 0 12 1 23 3 25 4 8 -51 46 -66 46 -9 0 -18 8 -20 18 -3 9 -5 11 -6 5z
m-26 -383 c0 -33 -2 -35 -37 -38 -21 -2 -38 -7 -38 -13 0 -5 42 -9 95 -9 57 0
95 4 95 10 0 6 -16 10 -35 10 -34 0 -35 1 -35 40 l0 40 43 0 c69 0 190 -35
280 -82 119 -60 240 -183 295 -299 62 -130 79 -240 42 -274 -26 -23 -158 -62
-285 -83 -129 -21 -624 -24 -760 -4 -124 18 -244 49 -291 76 -46 25 -52 52
-34 136 49 223 221 412 447 492 76 26 129 37 178 35 39 -2 40 -3 40 -37z
m-710 -592 c2 -7 7 -40 10 -73 9 -80 43 -112 157 -149 138 -44 282 -59 563
-59 271 -1 434 15 561 54 134 41 158 63 174 160 13 79 9 76 115 54 379 -80
542 -206 405 -313 -75 -59 -249 -118 -456 -157 -764 -142 -1866 -53 -2113 170
-51 47 -54 79 -10 130 55 62 203 121 429 170 122 27 159 30 165 13z m132 -87
c146 -49 253 -63 523 -68 335 -7 539 14 715 76 32 12 61 21 63 21 2 0 1 -15
-3 -32 -9 -46 -47 -74 -136 -103 -133 -42 -286 -58 -564 -57 -279 0 -417 15
-550 58 -89 29 -131 61 -137 105 -3 16 -3 29 -2 29 2 0 42 -13 91 -29z m-437
-400 c305 -79 538 -103 1010 -103 383 0 543 11 780 53 227 39 365 84 521 167
4 1 3 -19 -2 -45 -17 -89 -98 -148 -286 -207 -259 -81 -518 -109 -1008 -109
-505 -1 -788 31 -1040 117 -157 52 -236 107 -255 176 -19 69 -17 69 78 23 48
-24 139 -56 202 -72z"/>
<path d="M4674 4959 c-91 -72 -177 -209 -209 -334 -19 -73 -19 -105 -2 -105 9
0 20 29 31 80 24 115 77 210 164 298 77 78 87 118 16 61z"/>
<path d="M6557 5343 c5 -12 3 -14 -7 -8 -10 6 -12 4 -6 -10 11 -29 -4 -81 -33
-115 -23 -28 -34 -33 -71 -33 -25 0 -39 -2 -32 -4 6 -3 12 -18 12 -34 0 -26 3
-29 33 -30 30 -1 31 -1 7 -9 -24 -8 -24 -8 6 -9 48 -2 102 -70 57 -72 -15 0
-15 -2 2 -9 18 -7 16 -8 -10 -12 l-30 -5 33 -2 c17 0 32 -5 32 -10 0 -5 3 -17
7 -27 5 -13 3 -16 -9 -12 -8 4 -21 2 -29 -4 -11 -8 -11 -9 3 -4 10 3 24 -1 32
-9 16 -16 81 -21 72 -6 -4 5 0 12 6 14 10 4 10 6 1 6 -16 1 -17 51 -2 51 5 0
8 4 5 9 -10 15 12 61 28 61 10 0 13 6 10 15 -6 15 3 19 41 16 17 -2 17 0 5 8
-12 9 -9 11 13 11 22 0 27 4 27 25 0 17 8 29 23 35 22 10 22 10 -3 9 -59 -3
-91 2 -85 11 3 5 0 8 -7 5 -18 -7 -57 65 -65 120 -5 43 -7 45 -39 45 -27 0
-32 -3 -27 -17z"/>
<path d="M1714 5013 c0 -17 4 -29 9 -26 4 3 133 5 286 6 l277 1 -4 25 -4 26
-282 0 -282 0 0 -32z"/>
<path d="M3360 4988 l0 -28 293 1 c160 0 286 3 280 6 -16 6 -17 40 -2 45 6 2
-120 4 -280 3 l-291 0 0 -27z"/>
<path d="M2340 4940 c-74 -3 -129 -7 -122 -8 6 -1 12 -12 12 -24 0 -13 5 -30
10 -38 9 -13 11 -13 20 0 9 13 11 13 20 0 6 -10 10 -11 10 -2 0 6 8 12 18 12
14 0 15 -2 2 -10 -11 -7 -5 -10 23 -10 20 0 37 5 37 10 0 6 15 10 33 10 24 0
28 -3 17 -10 -12 -7 -8 -10 15 -10 23 0 27 3 15 10 -13 8 -13 10 2 10 9 0 19
-6 21 -12 4 -10 6 -10 6 0 1 8 22 12 70 12 46 0 71 -4 74 -12 4 -10 6 -10 6 0
1 8 18 12 54 12 37 0 48 -3 37 -10 -13 -8 -12 -10 3 -10 9 0 17 5 17 10 0 14
27 12 33 -2 4 -10 6 -10 6 0 1 6 8 12 17 12 8 0 12 -4 9 -10 -3 -5 -1 -10 4
-10 6 0 11 5 11 10 0 6 8 10 18 10 14 0 15 -2 2 -10 -12 -8 -10 -10 8 -10 13
0 20 4 17 10 -3 6 -2 10 4 10 5 0 12 -6 14 -12 4 -10 8 -9 16 2 10 13 12 13
21 0 6 -10 10 -11 10 -2 0 6 8 12 18 12 14 0 15 -2 2 -10 -11 -7 -5 -10 23
-10 20 0 37 5 37 10 0 6 15 10 33 10 24 0 28 -3 17 -10 -12 -8 -9 -10 13 -10
26 0 27 1 13 16 -9 8 -16 26 -16 40 l0 24 -182 0 c-101 1 -235 2 -298 3 -63 1
-176 0 -250 -3z"/>
<path d="M2798 4284 c3 -18 0 -24 -14 -25 -11 0 -14 -3 -6 -6 6 -2 12 -13 12
-24 0 -14 -8 -19 -27 -20 -22 -1 -24 -3 -7 -6 19 -4 20 -7 10 -28 -6 -14 -20
-25 -31 -26 -18 -1 -18 -2 -1 -6 15 -4 13 -8 -13 -24 -17 -10 -44 -19 -60 -19
-25 0 -27 -3 -23 -30 3 -21 10 -30 24 -30 10 0 33 -7 50 -16 24 -13 28 -18 17
-26 -11 -7 -9 -9 8 -5 15 3 23 -1 27 -17 8 -31 7 -38 -6 -30 -7 4 -8 3 -4 -5
4 -6 11 -9 16 -6 15 9 23 -37 9 -47 -11 -8 -10 -9 4 -4 14 4 17 -1 17 -28 0
-30 3 -33 28 -31 22 1 26 5 24 24 -2 13 4 29 15 37 16 13 16 13 1 8 -10 -3
-18 -2 -18 2 0 17 35 94 43 94 4 0 20 11 35 25 24 22 36 25 112 27 76 2 78 2
23 5 -59 4 -63 5 -63 28 0 20 -5 25 -24 25 -35 0 -96 38 -96 60 0 11 -6 22
-12 27 -8 5 16 10 57 14 l70 5 -68 2 c-52 2 -69 6 -74 18 -3 9 0 20 8 25 10 6
10 9 2 9 -7 0 -13 9 -13 19 0 14 6 19 20 16 11 -2 20 0 20 4 0 4 -22 8 -48 8
-47 1 -49 0 -44 -23z"/>
<path d="M7878 3959 c-20 -4 -48 -20 -62 -34 -14 -14 -30 -25 -35 -25 -6 0
-17 -13 -26 -30 -9 -16 -22 -30 -30 -30 -8 0 -15 -5 -15 -11 0 -5 4 -8 9 -5 5
3 0 -11 -10 -30 -10 -20 -20 -41 -22 -47 -2 -6 -16 -3 -34 7 -63 32 -195 13
-248 -36 -11 -11 -31 -21 -45 -24 -40 -9 -46 -12 -23 -13 l21 -1 -25 -47 c-14
-27 -30 -51 -37 -55 -8 -6 -8 -8 1 -8 6 0 9 -9 6 -21 -5 -18 -13 -20 -62 -19
-85 2 -157 -1 -143 -7 6 -2 12 -14 12 -25 0 -16 -5 -19 -25 -16 -14 3 -27 2
-30 -2 -2 -3 65 -6 150 -6 l155 1 0 46 c0 37 7 55 36 93 20 26 40 43 46 40 6
-4 8 -3 5 3 -9 14 19 37 34 27 7 -4 9 -3 5 4 -9 15 53 26 110 19 26 -2 58 -15
78 -31 44 -33 64 -34 61 -2 -2 13 4 33 13 43 10 10 17 27 17 38 0 15 9 22 35
26 31 6 32 7 7 8 -24 1 -26 3 -17 21 6 11 14 19 18 19 20 -3 30 3 28 18 -1 22
77 63 122 63 36 0 44 -16 10 -23 -13 -2 -4 -2 19 0 33 3 45 0 62 -18 23 -25
19 -41 -7 -33 -13 5 -14 4 -3 -4 7 -5 22 -7 32 -5 14 4 23 -3 33 -29 8 -19 16
-41 18 -49 2 -8 7 -17 11 -20 5 -4 10 -24 12 -45 2 -22 4 -41 5 -44 2 -3 2 -7
2 -10 0 -3 8 -6 18 -7 11 -1 17 3 14 11 -3 7 11 21 33 32 21 10 41 23 44 28 9
12 93 20 125 12 22 -6 25 -9 13 -17 -11 -7 -10 -9 6 -7 35 2 55 -2 55 -12 0
-5 14 -23 31 -41 17 -18 28 -37 25 -46 -3 -8 -2 -11 4 -8 10 6 34 -71 27 -89
-3 -7 1 -13 9 -13 7 0 10 5 7 10 -4 6 -1 7 8 1 8 -5 93 -9 190 -10 l175 0 -4
28 -4 28 -87 1 c-47 0 -123 0 -168 -1 l-83 -1 0 35 c0 40 -18 85 -40 103 -13
10 -10 13 15 14 27 2 27 2 5 6 -30 5 -89 33 -108 51 -8 7 -34 18 -59 25 -40
10 -42 13 -22 18 21 6 20 7 -9 8 -20 1 -31 -3 -27 -9 4 -6 -7 -10 -25 -10 -17
0 -47 -7 -67 -15 -50 -21 -73 -19 -73 5 0 15 7 20 28 21 l27 1 -27 7 c-15 3
-37 22 -52 44 -32 46 -32 47 -3 48 16 1 13 3 -10 9 -40 9 -85 38 -78 49 6 11
-73 31 -117 30 -18 -1 -50 -5 -70 -10z"/>
<path d="M4260 3620 c0 -25 -5 -40 -12 -40 -10 0 -10 -2 0 -8 9 -6 12 -36 11
-100 -1 -84 -3 -91 -23 -95 -21 -4 -20 -4 2 -6 16 -1 22 -7 22 -25 0 -13 -6
-27 -12 -29 -10 -4 -10 -6 0 -6 8 -1 12 -17 12 -45 l0 -45 -47 -4 -48 -3 48
-2 c39 -2 47 -5 47 -21 0 -12 -8 -21 -22 -24 l-23 -4 23 -2 c12 0 22 -8 22
-16 0 -9 9 -15 25 -15 15 0 25 6 25 14 0 8 6 17 13 19 10 4 10 6 0 6 -7 1 -13
10 -13 20 0 11 6 22 13 24 10 4 10 6 0 6 -7 1 -13 10 -13 20 0 11 6 22 13 24
10 4 10 6 0 6 -7 1 -13 10 -13 20 0 11 6 22 13 24 10 4 10 6 0 6 -7 1 -13 12
-13 26 0 14 6 25 13 25 9 0 9 2 -1 8 -15 10 -14 134 2 144 8 6 7 8 -1 8 -7 0
-13 9 -13 20 0 11 6 20 13 20 9 0 9 2 -1 9 -8 4 -13 17 -12 27 5 44 0 54 -25
54 -22 0 -25 -4 -25 -40z"/>
<path d="M5789 3593 c-1 -38 -1 -74 0 -81 1 -8 -4 -21 -11 -30 -8 -10 -9 -13
-1 -9 9 5 12 -6 11 -42 0 -46 -2 -50 -26 -54 l-27 -4 28 -2 27 -1 -1 -74 c-1
-60 -4 -76 -18 -79 -14 -4 -14 -5 2 -6 13 -1 17 -10 17 -41 0 -33 3 -40 20
-40 11 0 20 7 20 15 0 8 9 15 21 15 11 0 18 4 14 10 -3 5 -12 7 -20 3 -10 -3
-15 1 -15 15 0 17 8 22 38 25 l37 4 -36 1 -37 2 0 73 c0 43 5 75 12 79 8 6 7
8 -2 8 -9 0 -12 24 -11 94 1 95 1 95 28 99 l26 4 -28 2 c-23 1 -28 5 -27 24 4
45 0 57 -20 57 -18 0 -20 -7 -21 -67z"/>
<path d="M4989 3593 c-1 -21 0 -320 0 -375 1 -34 4 -38 26 -38 27 0 28 3 25
82 -1 46 -1 47 32 51 l33 4 -32 1 c-28 2 -33 6 -33 26 0 19 6 26 28 29 l27 4
-27 2 c-28 1 -28 1 -27 70 1 67 2 70 28 74 l26 4 -27 2 c-20 1 -28 6 -28 20 0
11 8 22 18 24 16 4 16 5 0 6 -10 0 -18 8 -18 16 0 22 -50 20 -51 -2z"/>
<path d="M4670 3421 c0 -29 -5 -41 -17 -44 -17 -4 -17 -5 0 -6 11 -1 17 -9 17
-25 0 -15 -7 -26 -17 -29 -17 -4 -17 -5 -1 -6 15 -1 17 -11 15 -68 -1 -58 -5
-69 -22 -75 -19 -6 -19 -6 3 -7 21 -1 22 -5 22 -75 0 -50 -4 -76 -12 -79 -10
-4 -10 -6 0 -6 7 -1 12 -17 12 -45 0 -37 3 -44 23 -48 22 -4 22 -4 19 121 -2
93 0 126 10 133 10 6 10 8 1 8 -9 0 -13 20 -12 69 l1 70 47 4 46 3 -47 2 c-44
2 -48 4 -48 26 0 18 7 26 23 29 l22 4 -22 2 c-16 1 -23 7 -23 22 0 11 4 18 9
15 5 -4 4 5 -2 19 -7 14 -20 25 -29 25 -14 0 -18 -9 -18 -39z"/>
<path d="M5380 3421 c0 -33 -4 -40 -22 -44 l-23 -4 23 -2 c28 -1 32 -47 5 -54
-16 -4 -16 -5 -1 -6 15 -1 17 -18 17 -153 0 -263 -2 -248 21 -248 14 0 20 7
20 21 0 11 4 18 8 15 4 -2 14 0 22 5 12 8 11 9 -5 7 -19 -3 -20 3 -21 122 0
79 4 128 10 132 7 5 7 8 -1 8 -7 0 -13 9 -13 19 0 11 6 22 13 24 10 4 10 6 0
6 -7 1 -13 10 -13 21 0 11 6 20 13 20 9 0 9 2 0 8 -8 5 -12 28 -12 58 2 79 0
84 -21 84 -17 0 -20 -7 -20 -39z"/>
<path d="M8448 3438 c-14 -36 -2 -38 271 -38 147 0 270 3 273 6 3 3 4 14 1 25
-5 18 -16 19 -273 19 -205 0 -269 -3 -272 -12z"/>
<path d="M6804 3421 c-2 -2 -4 -12 -4 -22 0 -9 -6 -20 -12 -22 -7 -3 130 -6
306 -6 175 0 317 2 315 4 -2 2 -13 5 -24 7 -11 1 -22 12 -25 22 -5 19 -17 20
-279 20 -150 1 -275 -1 -277 -3z"/>
<path d="M8003 3342 c-111 -3 -133 -10 -114 -40 9 -15 831 -18 840 -3 4 5 24
11 46 14 l40 4 -42 1 c-24 1 -43 6 -43 12 0 9 -498 18 -727 12z"/>
<path d="M2301 2990 c-23 -17 -51 -32 -61 -33 -10 -1 -16 -5 -13 -10 3 -5 0
-27 -7 -48 -10 -28 -16 -36 -25 -29 -7 6 -33 13 -59 16 -57 8 -130 -17 -163
-57 -13 -15 -31 -26 -41 -24 -9 1 -11 0 -4 -2 6 -3 12 -9 12 -14 0 -6 -5 -7
-12 -3 -6 4 -8 3 -5 -3 4 -6 -2 -28 -12 -49 -10 -21 -17 -44 -14 -51 4 -10
-14 -13 -76 -13 -47 0 -81 -4 -81 -10 0 -5 -17 -11 -37 -11 l-38 -2 45 -8 c60
-10 230 -10 255 1 14 6 15 9 5 9 -9 1 -16 10 -17 21 -1 15 5 20 25 21 25 2 25
2 4 6 -27 5 -24 24 6 39 29 14 42 27 19 18 -22 -8 -22 9 1 29 11 10 37 18 63
18 43 2 43 2 9 8 l-35 6 32 14 c25 10 39 11 67 1 20 -6 36 -14 36 -17 0 -3 -7
-3 -15 0 -8 4 -16 3 -19 -1 -2 -4 7 -9 22 -10 14 -1 31 -7 36 -12 16 -16 36
-12 36 8 0 10 7 28 16 40 8 12 12 22 7 22 -4 0 -1 6 7 13 8 7 23 24 32 39 52
80 168 74 226 -12 22 -32 22 -35 5 -41 -16 -7 -15 -8 3 -8 26 -1 41 -31 22
-43 -11 -6 -10 -8 0 -8 7 0 11 -4 8 -9 -5 -8 15 -21 33 -21 5 0 25 13 45 29
48 39 86 47 125 27 35 -18 82 -66 76 -77 -3 -4 2 -9 10 -13 21 -8 19 -36 -2
-37 -15 0 -15 -2 2 -8 28 -11 25 -35 -5 -42 -14 -4 65 -7 175 -7 110 0 194 2
188 5 -7 2 -13 11 -13 19 0 11 -26 14 -132 16 -73 1 -115 4 -93 6 l40 6 -40 5
c-56 8 -61 38 -8 44 l38 4 -39 1 c-27 2 -46 10 -62 28 -13 14 -24 29 -24 33 0
5 -7 14 -15 21 -13 11 -13 15 -3 22 9 6 7 8 -7 7 -11 -1 -37 5 -57 15 -49 21
-105 20 -148 -3 l-36 -19 -19 47 c-11 25 -19 49 -17 54 1 4 -6 7 -16 7 -17 0
-52 32 -52 48 0 4 -37 9 -83 11 -78 2 -84 1 -126 -29z"/>
<path d="M4990 2926 c0 -42 -4 -66 -12 -69 -10 -4 -10 -6 0 -6 6 -1 12 -10 12
-20 0 -15 -8 -21 -37 -24 l-38 -4 37 -1 37 -2 0 -100 c0 -97 0 -100 -22 -100
-17 0 -19 -2 -7 -9 8 -6 18 -7 22 -5 4 3 8 -1 8 -10 0 -8 6 -17 13 -19 7 -3 6
-6 -5 -6 -9 -1 -19 -5 -22 -9 -3 -5 8 -6 24 -4 17 2 27 8 24 13 -3 5 0 9 5 9
6 0 11 18 11 39 0 22 5 42 13 44 10 4 10 6 0 6 -20 1 -15 39 5 44 15 4 15 5 0
6 -12 1 -16 12 -16 50 -1 49 0 50 31 54 l32 4 -33 1 -33 2 1 73 c2 110 3 107
-25 107 -24 0 -25 -2 -25 -64z"/>
<path d="M7267 2771 c-2 -11 -15 -21 -28 -24 l-24 -4 23 -2 c17 -1 22 -6 18
-18 -3 -10 -8 -30 -12 -45 -5 -21 -13 -28 -33 -29 -24 -2 -24 -2 -3 -6 19 -4
21 -7 11 -19 -6 -8 -18 -14 -25 -14 -8 0 -14 -4 -14 -10 0 -6 -3 -10 -7 -9
-19 3 -53 -15 -53 -26 0 -7 -6 -15 -12 -18 -7 -2 5 -7 26 -11 41 -8 106 -53
106 -74 0 -7 7 -39 17 -72 14 -50 20 -60 39 -60 18 0 23 7 29 47 15 101 78
163 166 163 24 0 30 3 20 9 -8 5 -20 7 -28 4 -7 -3 -13 2 -13 11 0 9 -7 16
-16 16 -9 0 -12 5 -8 12 4 6 3 8 -3 5 -13 -8 -83 20 -83 33 0 6 6 10 13 10 9
0 8 3 -2 9 -7 5 -11 14 -7 20 5 7 1 8 -10 4 -13 -5 -16 -3 -11 10 3 9 3 17 -2
17 -17 0 -19 39 -2 43 14 4 14 5 -1 6 -11 1 -18 9 -18 21 0 27 -46 28 -53 1z"/>
<path d="M1760 2590 c10 -7 -19 -10 -92 -10 -93 0 -108 -2 -108 -16 0 -9 -6
-14 -13 -11 -8 3 -20 1 -28 -3 -18 -12 211 -16 511 -10 135 3 235 7 222 8 -12
1 -25 9 -28 17 -4 10 -21 15 -53 16 -35 0 -41 2 -26 9 17 8 17 9 -7 7 -15 -1
-24 -5 -22 -9 3 -4 -2 -8 -11 -8 -10 0 -14 5 -9 13 6 10 4 10 -7 0 -16 -16
-314 -19 -304 -3 3 6 -4 10 -17 10 -18 0 -20 -2 -8 -10z"/>
<path d="M2810 2576 c0 -13 -6 -27 -12 -29 -7 -3 16 -5 52 -5 46 0 58 2 40 8
-20 6 -15 8 23 8 26 0 47 -4 47 -9 0 -5 19 -9 43 -9 31 0 38 3 27 10 -11 7 -4
10 25 9 34 0 37 -2 18 -9 -32 -13 -29 -17 7 -12 16 2 27 8 24 13 -3 5 2 9 11
9 9 0 13 -4 10 -10 -4 -6 13 -10 45 -10 32 0 49 4 45 10 -3 6 1 10 10 10 9 0
13 -4 10 -10 -3 -5 -1 -10 4 -10 6 0 11 14 11 30 l0 30 -220 0 -220 0 0 -24z"/>
<path d="M2720 2260 c0 -5 -8 -7 -17 -3 -16 5 -16 4 1 -9 15 -12 16 -18 7 -36
-6 -11 -11 -29 -11 -39 0 -22 -57 -79 -94 -93 -35 -13 -38 -60 -3 -60 33 0 93
-67 103 -115 10 -52 11 -58 13 -72 0 -7 12 -13 26 -13 22 0 25 4 25 35 0 38
18 85 33 85 6 0 8 3 5 6 -3 3 7 19 22 36 19 21 39 31 59 32 28 1 31 4 31 34 0
17 -3 31 -7 31 -45 -7 -110 38 -98 69 3 9 0 12 -9 9 -17 -7 -36 39 -36 84 0
24 -4 29 -25 29 -14 0 -25 -4 -25 -10z"/>
<path d="M4998 2119 c-54 -8 -120 -45 -165 -91 -73 -75 -113 -221 -113 -408 0
-320 119 -502 330 -504 160 -1 272 112 317 319 11 52 14 110 10 225 -4 145 -6
160 -36 236 -38 99 -89 160 -162 196 -62 29 -115 37 -181 27z m110 -169 c59
-36 92 -152 92 -325 -1 -231 -52 -355 -149 -355 -49 0 -76 21 -108 83 -58 115
-56 428 3 538 43 79 97 99 162 59z"/>
<path d="M5820 2094 c0 -9 -79 -138 -165 -269 -18 -27 -59 -92 -91 -143 -33
-52 -71 -112 -86 -135 -23 -34 -28 -53 -28 -104 l0 -63 210 0 210 0 0 -120 0
-121 93 3 92 3 3 117 3 117 57 3 57 3 0 70 0 70 -58 3 -58 3 1 270 c1 179 5
267 11 263 6 -3 5 3 -2 14 -12 19 -25 21 -131 24 -79 2 -118 -1 -118 -8z m52
-386 l-4 -178 -104 0 c-57 0 -104 3 -104 7 0 3 35 61 79 127 43 67 91 145 106
174 16 28 29 51 30 50 0 -2 -1 -83 -3 -180z"/>
<path d="M4250 2033 c-23 -38 -58 -93 -78 -124 -259 -400 -252 -386 -252 -461
l0 -68 210 0 210 0 0 -120 0 -120 90 0 90 0 0 120 0 120 60 0 61 0 -3 73 -3
72 -57 3 -58 3 0 284 0 285 -114 0 -114 0 -42 -67z m90 -323 l0 -180 -110 0
c-60 0 -110 2 -110 5 0 3 8 18 18 33 77 112 105 157 146 225 25 43 46 83 46
88 0 5 2 9 5 9 3 0 5 -81 5 -180z"/>
<path d="M4022 952 c-9 -7 -12 -64 -10 -253 l3 -244 155 0 155 0 3 43 3 42
-105 0 -106 0 0 65 0 65 86 0 85 0 -3 43 -3 42 -82 3 -83 3 0 49 0 50 101 0
100 0 -3 48 -3 47 -140 2 c-77 2 -146 -1 -153 -5z"/>
<path d="M4422 952 c-9 -6 -12 -64 -10 -253 l3 -244 48 -3 47 -3 0 96 0 96 32
-3 c29 -3 37 -12 84 -93 l52 -90 47 -3 c26 -2 52 1 56 5 5 5 -16 51 -47 102
l-56 94 31 24 c91 71 79 207 -21 256 -42 20 -243 35 -266 19z m231 -113 c24
-29 21 -55 -8 -84 -20 -21 -34 -25 -80 -25 l-55 0 0 71 0 72 63 -7 c46 -4 67
-11 80 -27z"/>
<path d="M4857 953 c-4 -3 -7 -118 -7 -255 l0 -249 48 3 47 3 3 93 3 92 29 0
c25 0 33 -9 67 -67 21 -38 43 -80 50 -95 11 -26 17 -28 68 -28 36 0 55 4 55
12 0 7 -23 52 -51 102 l-51 90 30 25 c42 37 52 61 52 132 0 57 -2 64 -35 94
-26 25 -48 35 -98 44 -70 12 -200 15 -210 4z m187 -93 c44 -10 56 -23 56 -62
0 -46 -31 -68 -95 -68 l-55 0 0 63 c0 35 3 67 7 70 9 9 40 8 87 -3z"/>
<path d="M5390 944 c-46 -20 -77 -50 -103 -99 -30 -55 -31 -222 -3 -275 46
-88 103 -124 196 -124 138 0 219 96 220 259 0 161 -82 256 -222 255 -29 -1
-69 -8 -88 -16z m129 -85 c58 -20 92 -121 71 -209 -17 -69 -56 -110 -107 -110
-76 0 -113 54 -113 166 0 77 20 128 59 149 32 17 49 18 90 4z"/>
<path d="M5785 949 c-3 -8 -4 -122 -3 -254 l3 -240 50 0 50 0 3 93 3 92 27 0
c24 0 33 -11 77 -93 l50 -92 49 -3 c27 -2 52 0 57 5 4 4 -17 51 -46 103 l-55
95 31 24 c85 67 76 207 -17 251 -57 28 -270 42 -279 19z m232 -101 c7 -6 13
-28 13 -49 0 -49 -27 -69 -92 -69 l-48 0 0 71 0 72 57 -7 c31 -4 63 -12 70
-18z"/>
</g>
</svg>
