<?xml version="1.0" standalone="no"?>
<!DOCTYPE svg PUBLIC "-//W3C//DTD SVG 20010904//EN"
 "http://www.w3.org/TR/2001/REC-SVG-20010904/DTD/svg10.dtd">
<svg version="1.0" xmlns="http://www.w3.org/2000/svg"
 width="640.000000pt" height="640.000000pt" viewBox="0 0 640.000000 640.000000"
 preserveAspectRatio="xMidYMid meet">

<g transform="translate(0.000000,640.000000) scale(0.100000,-0.100000)"
fill="#000000" stroke="none">
<path d="M4748 5868 c-41 -64 -68 -239 -68 -449 0 -155 0 -156 26 -180 l26
-24 -6 -185 c-3 -102 -9 -242 -12 -312 l-6 -128 -114 0 c-110 0 -114 1 -114
22 0 11 -5 176 -11 365 l-11 343 31 35 31 36 0 174 c0 95 -4 176 -9 179 -5 3
-12 -51 -16 -120 -4 -71 -11 -122 -16 -117 -4 4 -10 67 -11 138 -3 139 -6 129
-25 -80 -6 -78 -7 -79 -14 -35 -4 25 -8 88 -9 140 -2 116 -17 86 -20 -40 -3
-148 -16 -146 -26 5 -8 135 -9 137 -15 70 -4 -38 -7 -121 -8 -183 -1 -118 10
-163 45 -176 16 -6 17 -28 10 -279 -3 -150 -9 -318 -13 -374 l-6 -103 -28 0
c-26 0 -29 -3 -29 -35 l0 -35 71 0 c149 0 227 -47 248 -150 8 -39 10 -273 9
-786 l-3 -732 -405 495 c-730 892 -791 967 -890 1089 -54 66 -106 128 -115
137 -15 16 -84 17 -816 17 l-799 0 0 -34 0 -34 88 -4 c76 -3 96 -8 143 -35
103 -58 94 39 97 -1051 2 -649 -1 -966 -8 -993 -13 -48 -61 -105 -96 -113 -49
-13 -81 20 -138 139 -76 158 -135 202 -236 175 -88 -24 -139 -104 -126 -197
29 -217 328 -312 584 -186 140 69 276 244 317 408 31 127 35 210 35 855 0 658
7 847 35 901 19 37 70 74 121 89 26 8 87 11 170 8 120 -4 135 -6 208 -38 67
-28 92 -46 158 -113 l79 -80 -3 -901 c-4 -999 -1 -951 -71 -1011 -45 -39 -101
-55 -191 -55 l-66 0 0 -35 0 -35 408 2 407 3 3 33 3 32 -71 0 c-39 0 -91 5
-115 11 -60 15 -119 68 -135 121 -10 33 -14 208 -17 758 -2 393 -3 753 -1 799
l3 84 64 -79 c36 -43 95 -115 131 -159 37 -44 353 -430 704 -857 618 -755 638
-778 671 -778 l34 0 3 1078 3 1077 25 45 c38 68 92 93 208 98 l93 4 -3 32 c-2
23 -9 32 -24 34 -20 3 -21 10 -27 190 -4 103 -7 271 -7 374 0 180 1 188 21
198 11 7 31 35 45 63 28 62 31 135 9 221 -28 106 -78 150 -136 120 -101 -52
-115 -338 -21 -400 l25 -16 -7 -337 c-4 -185 -9 -353 -13 -373 l-6 -38 -97 0
-98 0 -7 31 c-4 16 -8 304 -10 638 -1 335 -5 614 -9 620 -11 17 -22 13 -38
-11z"/>
<path d="M1190 5194 c0 -41 -4 -63 -10 -59 -5 3 -10 15 -10 25 0 10 -14 30
-31 44 -25 21 -41 26 -85 26 l-54 0 0 -85 c0 -76 2 -85 18 -85 23 0 45 24 65
70 15 34 15 31 15 -80 l1 -115 -19 42 c-17 39 -44 63 -70 63 -7 0 -10 -29 -8
-87 l3 -88 55 -3 c67 -3 109 19 134 72 9 20 19 36 22 36 5 0 0 -48 -12 -112
l-6 -28 176 0 c107 0 176 4 176 10 0 18 -101 244 -117 262 -9 10 -14 18 -12
18 33 4 139 4 139 -1 0 -3 -5 -10 -11 -16 -7 -7 -2 -30 17 -77 14 -36 30 -68
34 -71 5 -3 21 27 36 66 26 67 27 72 10 84 -22 16 -11 23 34 20 46 -3 46 -3
27 -17 -19 -14 -128 -264 -119 -272 10 -11 382 -6 382 4 0 6 -4 10 -9 10 -17
0 -51 85 -51 126 0 21 9 58 19 81 50 109 202 92 218 -24 l6 -43 -82 0 c-91 0
-87 4 -61 -65 19 -51 68 -64 109 -29 37 31 41 17 6 -24 -14 -17 -25 -33 -25
-36 0 -3 54 -6 120 -6 162 0 160 -2 160 152 0 101 -2 118 -17 127 -21 12 -22
12 45 16 40 2 54 -1 61 -13 9 -15 11 -15 28 1 20 17 79 23 99 9 25 -17 34 -56
34 -155 0 -136 1 -137 170 -137 66 0 120 4 120 9 0 5 -7 14 -15 21 -12 10 -15
37 -15 120 0 102 -1 108 -22 113 -19 5 -17 10 30 52 28 25 54 55 57 65 12 37
25 20 25 -33 l0 -52 33 0 c22 0 32 -5 32 -15 0 -10 -12 -16 -32 -18 l-33 -3 0
-110 c0 -98 2 -109 18 -109 10 0 23 5 30 12 8 8 12 9 12 1 0 -6 -7 -18 -15
-27 -8 -8 -15 -17 -15 -20 0 -3 68 -6 152 -6 l152 0 -26 28 c-38 41 -48 65
-48 122 0 92 49 150 127 150 79 0 122 -38 138 -121 9 -47 -10 -115 -41 -146
-13 -13 -24 -26 -24 -28 0 -3 63 -5 139 -5 l140 0 3 53 3 52 22 -37 c25 -43
66 -59 90 -35 20 20 5 48 -42 77 -74 46 -99 121 -54 169 19 20 28 22 87 18
l67 -5 3 -41 c4 -46 -9 -54 -26 -16 -13 29 -53 51 -76 42 -26 -10 -18 -35 21
-64 77 -59 93 -79 93 -120 0 -22 -7 -48 -15 -59 -22 -29 -18 -36 18 -32 l32 3
3 213 2 212 -1380 0 -1380 0 0 -66z"/>
<path d="M860 5045 c0 -119 4 -195 10 -195 23 0 30 47 30 202 0 158 -5 188
-32 188 -4 0 -8 -88 -8 -195z"/>
<path d="M2010 5095 c-6 -8 -13 -29 -13 -47 -2 -32 -1 -33 41 -36 47 -4 52 7
31 67 -12 34 -38 41 -59 16z"/>
<path d="M3340 5091 c-5 -11 -10 -61 -10 -111 0 -98 10 -130 39 -130 36 0 46
28 46 130 0 102 -10 130 -46 130 -10 0 -23 -9 -29 -19z"/>
<path d="M2486 5074 c-12 -12 -16 -38 -16 -112 0 -82 3 -100 18 -113 16 -13
22 -14 36 -3 19 14 23 48 18 177 -2 59 -4 67 -21 67 -11 0 -27 -7 -35 -16z"/>
<path d="M2130 1928 c-23 -51 -25 -78 -6 -78 12 0 116 102 116 114 0 3 -20 6
-45 6 -44 0 -47 -2 -65 -42z"/>
<path d="M1015 1943 c44 -11 45 -17 45 -208 0 -101 -3 -190 -6 -199 -7 -18
-59 -22 -70 -5 -3 6 -1 16 5 22 19 19 13 65 -9 77 -50 27 -92 -27 -65 -80 20
-39 63 -60 120 -60 25 0 59 7 75 15 52 27 60 57 60 227 0 84 3 163 6 176 4 14
18 25 38 31 22 7 -3 9 -94 9 -69 0 -116 -3 -105 -5z"/>
<path d="M3970 1725 l0 -225 53 0 c61 0 117 14 129 32 11 19 10 356 -2 378
-13 24 -62 40 -126 40 l-54 0 0 -225z"/>
<path d="M4292 1908 c19 -24 68 -86 109 -138 l74 -94 3 104 c2 58 0 115 -3
127 -7 28 -57 43 -149 43 l-68 0 34 -42z"/>
<path d="M4542 1940 c-12 -5 -25 -15 -27 -22 -3 -7 -6 -104 -8 -216 l-2 -202
174 0 174 0 -20 23 c-102 111 -44 297 93 297 84 0 144 -67 144 -162 0 -68 -11
-101 -46 -133 l-27 -25 183 0 183 0 -21 23 c-11 12 -25 35 -31 50 -17 43 -13
128 7 167 36 72 130 103 184 60 29 -22 58 -78 58 -109 0 -20 -5 -21 -86 -21
l-86 0 6 -31 c3 -17 6 -35 6 -39 0 -4 11 -19 25 -34 32 -34 71 -34 107 1 38
36 36 12 -3 -32 l-31 -35 45 0 46 0 1 225 1 225 -37 0 c-31 0 -43 -7 -81 -50
-50 -55 -79 -66 -69 -25 3 14 9 36 12 50 l6 25 -428 -1 c-236 0 -439 -4 -452
-9z"/>
<path d="M4185 1694 c0 -141 2 -157 19 -169 26 -20 86 -27 188 -23 l87 3 -138
170 c-76 93 -142 170 -147 172 -5 2 -9 -67 -9 -153z"/>
<path d="M2080 1809 c-66 -26 -94 -95 -47 -116 47 -22 91 29 56 64 -17 17 -2
33 30 33 36 0 51 -17 51 -56 0 -29 -6 -36 -64 -68 -101 -56 -131 -111 -86
-156 26 -26 56 -25 107 4 40 23 42 23 48 6 9 -29 62 -36 93 -13 33 25 40 43
13 36 -20 -5 -21 -1 -21 107 0 110 0 112 -29 141 -25 24 -37 29 -78 28 -26 0
-59 -5 -73 -10z m90 -192 c0 -46 -13 -67 -42 -67 -20 0 -38 28 -30 50 7 23 44
60 59 60 9 0 13 -14 13 -43z"/>
<path d="M2676 1784 l-36 -37 0 31 0 32 -65 0 -65 0 20 -20 c18 -18 20 -33 20
-135 0 -102 -2 -117 -20 -135 l-20 -20 87 0 c82 0 86 1 65 16 -19 13 -22 24
-22 82 0 79 15 141 36 149 9 3 26 0 38 -7 41 -21 61 -10 61 35 0 38 -2 40 -31
43 -26 3 -39 -4 -68 -34z"/>
<path d="M3049 1796 c-68 -47 -89 -153 -46 -236 25 -51 55 -70 110 -70 46 0
74 13 104 49 33 39 29 61 -5 28 -35 -33 -71 -34 -100 -4 -24 25 -45 84 -36 98
3 5 42 9 86 9 l81 0 -6 42 c-12 91 -113 136 -188 84z m95 -18 c9 -12 16 -37
16 -55 0 -32 -1 -33 -45 -33 -50 0 -55 11 -34 67 18 47 40 54 63 21z"/>
<path d="M1453 1792 c14 -15 17 -41 17 -136 0 -111 1 -118 25 -141 30 -31 77
-33 123 -5 26 16 32 17 32 5 0 -12 14 -15 62 -15 59 0 60 1 45 18 -14 15 -17
42 -17 155 l0 137 -65 0 -65 0 20 -20 c17 -17 20 -33 20 -119 0 -95 -1 -100
-26 -120 -52 -41 -64 -15 -64 147 l0 112 -62 0 c-59 0 -60 -1 -45 -18z"/>
<path d="M3460 1765 c0 -49 14 -60 24 -20 8 32 37 47 86 43 l39 -3 -58 -95
c-31 -52 -70 -116 -85 -142 l-28 -48 141 0 141 0 0 53 0 52 -20 -33 c-23 -37
-59 -54 -106 -50 l-33 3 58 95 c31 52 70 116 85 143 l28 47 -136 0 -136 0 0
-45z"/>
<path d="M4899 1783 c-22 -26 -25 -217 -5 -248 19 -28 38 -32 59 -11 18 18 31
140 21 202 -10 67 -45 94 -75 57z"/>
<path d="M5410 1785 c-6 -8 -14 -32 -17 -55 l-6 -40 47 0 c45 0 46 0 46 33 0
58 -42 96 -70 62z"/>
</g>
</svg>
